<svg xmlns="http://www.w3.org/2000/svg" width="56" height="56" viewBox="0 0 56 56">
    <g fill="none" fill-rule="evenodd">
        <path fill="#181818" d="M41.126 26.11l2.632 2.625 4.897-4.423-4.227 5.994-.67.9-.902-.9-2.951-2.951z"/>
        <path stroke="#181818" d="M46.802 14.868v1.118c0 .409-.498.858-.717.858h-4.972c-.218 0-.766-.45-.766-.858v-1.118h6.455zm.04 25.008h-6.563 6.563zm-9.334-25.008H49.51c1.215 0 2.312.965 2.312 2.18V40.46c0 1.215-1.097 2.38-2.312 2.38H37.53c-1.213 0-2.223-1.165-2.223-2.38V17.048c0-1.215.986-2.18 2.2-2.18zM26.853 49.1V6.5v42.6zm-.054-.001c-6.891 0-12.476-9.535-12.476-21.3 0-11.761 5.585-21.3 12.476-21.3v42.6zm-21.3-21.246h21.383H5.5zm32.125 18.295a21.205 21.205 0 0 1-10.824 2.95c-11.762 0-21.3-9.534-21.3-21.298 0-11.762 9.538-21.3 21.3-21.3a21.215 21.215 0 0 1 13.99 5.24"/>
    </g>
</svg>
