<?xml version="1.0" encoding="UTF-8"?>
<svg width="127px" height="61px" viewBox="0 0 127 61" version="1.1" xmlns="http://www.w3.org/2000/svg" xmlns:xlink="http://www.w3.org/1999/xlink">
    <!-- Generator: Sketch 57.1 (83088) - https://sketch.com -->
    <title>Group 17 Copy 2</title>
    <desc>Created with Sketch.</desc>
    <defs>
        <rect id="path-1" x="0.5" y="0.438769217" width="10" height="14"></rect>
    </defs>
    <g id="Page-1" stroke="none" stroke-width="1" fill="none" fill-rule="evenodd">
        <g id="Ajax-Introduction-Desktop" transform="translate(-1488.000000, -9281.000000)">
            <g id="App" transform="translate(0.000000, 8863.000000)">
                <g id="Content" transform="translate(208.000000, 1.000000)">
                    <g id="Group-17-Copy-2" transform="translate(1280.000000, 417.000000)">
                        <text id="4,6" font-family="Roboto-Medium, Roboto Medium" font-size="20" font-weight="normal" letter-spacing="0.769230769" fill="#303030">
                            <tspan x="1.28170072" y="57">4,6</tspan>
                        </text>
                        <g id="Group">
                            <g id="Appstore-stars" transform="translate(39.000000, 46.000000)">
                                <polygon id="Star-Copy-3" fill="#F5CA1B" points="7 10.5 2.88550323 12.663119 3.67130219 8.08155948 0.342604386 4.83688104 4.94275162 4.16844052 7 0 9.05724838 4.16844052 13.6573956 4.83688104 10.3286978 8.08155948 11.1144968 12.663119"></polygon>
                                <polygon id="Star-Copy-4" fill="#F5CA1B" points="24.5 10.5 20.6793959 12.663119 21.4090663 8.08155948 18.3181326 4.83688104 22.5896979 4.16844052 24.5 0 26.4103021 4.16844052 30.6818674 4.83688104 27.5909337 8.08155948 28.3206041 12.663119"></polygon>
                                <polygon id="Star-Copy-5" fill="#F5CA1B" points="42 10.5 37.8855032 12.663119 38.6713022 8.08155948 35.3426044 4.83688104 39.9427516 4.16844052 42 0 44.0572484 4.16844052 48.6573956 4.83688104 45.3286978 8.08155948 46.1144968 12.663119"></polygon>
                                <polygon id="Star-Copy-6" fill="#F5CA1B" points="60.5 10.5 56.0916106 12.663119 56.9335381 8.08155948 53.3670761 4.83688104 58.2958053 4.16844052 60.5 0 62.7041947 4.16844052 67.6329239 4.83688104 64.0664619 8.08155948 64.9083894 12.663119"></polygon>
                                <g id="Star-Copy-8" transform="translate(70.000000, 0.000000)">
                                    <mask id="mask-2" fill="white">
                                        <use xlink:href="#path-1"></use>
                                    </mask>
                                    <g id="Mask"></g>
                                    <polygon id="Star-Copy-7" fill="#F5CA1B" mask="url(#mask-2)" points="10 11.4387692 4.67074705 13.9109052 5.68854379 8.67483719 1.37708759 4.96663326 7.33537352 4.20270124 10 -0.561230783 12.6646265 4.20270124 18.6229124 4.96663326 14.3114562 8.67483719 15.329253 13.9109052"></polygon>
                                </g>
                                <g id="Star-Copy-7" transform="translate(72.000000, 0.000000)" stroke="#F5CA1B">
                                    <polygon points="8 10.9387692 3.59161061 13.1018882 4.43353806 8.5203287 0.867076128 5.27565026 5.7958053 4.60720974 8 0.438769217 10.2041947 4.60720974 15.1329239 5.27565026 11.5664619 8.5203287 12.4083894 13.1018882"></polygon>
                                </g>
                            </g>
                            <g id="appstore_blank-Copy" fill="#303030">
                                <path d="M12.5360094,8.68877157 C13.668883,8.68877157 15.7914648,7.13281649 18.0177896,7.36348368 C18.9535514,7.40122922 21.5720248,7.74303607 23.2547362,10.2279509 C23.1219452,10.3160238 20.1258473,12.0711914 20.1631948,15.7387998 C20.2007836,19.9136322 23.6186907,21.4289759 23.9761235,21.5827198 L24.0058355,21.5956496 C23.9705629,21.6942074 23.4020513,23.6716544 22.0201945,25.7120106 C20.82715,27.4734692 19.5926083,29.2286368 17.640165,29.2663823 C15.7229944,29.3020309 15.106761,28.1151433 12.913634,28.1151433 C10.7205069,28.1151433 10.0358031,29.2286368 8.22237548,29.3020309 C6.34047745,29.3712311 4.90467433,27.3979781 3.70125553,25.6407134 C1.24047156,22.0444022 -0.637276746,15.4850659 1.88782788,11.0562558 C3.14104332,8.8586265 5.37981727,7.46623543 7.8115532,7.42848989 C9.66025346,7.3949383 11.4072856,8.68877157 12.5360094,8.68877157 Z M18.0468376,0.361685824 C18.2315001,2.0581382 17.5550958,3.76088149 16.5570881,4.98341762 C15.5590805,6.20385678 13.9157913,7.15798018 12.3098497,7.03006474 C12.0940642,5.36716396 12.9011848,3.63715999 13.8286472,2.55302418 C14.8640024,1.32839107 16.6048099,0.42040111 18.0468376,0.361685824 Z" id="logo" fill-rule="nonzero"></path>
                                <path d="M41.6425781,17.1191406 L38.3378906,17.1191406 L37.6464844,19.1054688 L36.1054688,19.1054688 L39.328125,10.5742188 L40.6582031,10.5742188 L43.8867188,19.1054688 L42.3398438,19.1054688 L41.6425781,17.1191406 Z M38.7539062,15.9238281 L41.2265625,15.9238281 L39.9902344,12.3847656 L38.7539062,15.9238281 Z M50.3863282,16 C50.3863282,16.9804737 50.1636741,17.7626924 49.7183594,18.3466797 C49.2730447,18.930667 48.6753944,19.2226562 47.9253907,19.2226562 C47.2300747,19.2226562 46.6734396,18.9941429 46.2554688,18.5371094 L46.2554688,21.5429688 L44.8316407,21.5429688 L44.8316407,12.765625 L46.1441407,12.765625 L46.2027344,13.4101562 C46.6207053,12.9023412 47.1890589,12.6484375 47.9078125,12.6484375 C48.6812539,12.6484375 49.2876932,12.9365206 49.7271485,13.5126953 C50.1666038,14.0888701 50.3863282,14.8886668 50.3863282,15.9121094 L50.3863282,16 Z M48.9683594,15.8769531 C48.9683594,15.2441375 48.8423841,14.7421894 48.5904297,14.3710938 C48.3384753,13.9999981 47.9781274,13.8144531 47.509375,13.8144531 C46.9273409,13.8144531 46.5093763,14.0546851 46.2554688,14.5351562 L46.2554688,17.3476562 C46.5132826,17.8398462 46.9351534,18.0859375 47.5210938,18.0859375 C47.9742211,18.0859375 48.3287097,17.9033221 48.5845703,17.5380859 C48.840431,17.1728497 48.9683594,16.6191443 48.9683594,15.8769531 Z M57.5421876,16 C57.5421876,16.9804737 57.3195335,17.7626924 56.8742188,18.3466797 C56.4289041,18.930667 55.8312538,19.2226562 55.0812501,19.2226562 C54.3859341,19.2226562 53.829299,18.9941429 53.4113282,18.5371094 L53.4113282,21.5429688 L51.9875001,21.5429688 L51.9875001,12.765625 L53.3000001,12.765625 L53.3585938,13.4101562 C53.7765647,12.9023412 54.3449184,12.6484375 55.0636719,12.6484375 C55.8371133,12.6484375 56.4435526,12.9365206 56.8830079,13.5126953 C57.3224632,14.0888701 57.5421876,14.8886668 57.5421876,15.9121094 L57.5421876,16 Z M56.1242188,15.8769531 C56.1242188,15.2441375 55.9982435,14.7421894 55.7462891,14.3710938 C55.4943347,13.9999981 55.1339868,13.8144531 54.6652344,13.8144531 C54.0832003,13.8144531 53.6652357,14.0546851 53.4113282,14.5351562 L53.4113282,17.3476562 C53.669142,17.8398462 54.0910128,18.0859375 54.6769532,18.0859375 C55.1300805,18.0859375 55.4845691,17.9033221 55.7404298,17.5380859 C55.9962904,17.1728497 56.1242188,16.6191443 56.1242188,15.8769531 Z M67.1312501,16.9082031 C67.1312501,16.5332013 66.9994155,16.2441416 66.7357423,16.0410156 C66.4720691,15.8378896 65.996488,15.6328135 65.3089845,15.4257812 C64.6214811,15.218749 64.0746115,14.9882825 63.6683595,14.734375 C62.8910119,14.2460913 62.5023439,13.6093789 62.5023439,12.8242188 C62.5023439,12.1367153 62.7826145,11.5703147 63.3431642,11.125 C63.9037139,10.6796853 64.6312457,10.4570312 65.5257814,10.4570312 C66.1195344,10.4570312 66.6488259,10.5664052 67.113672,10.7851562 C67.5785181,11.0039073 67.9437488,11.3154277 68.2093751,11.7197266 C68.4750015,12.1240255 68.6078126,12.5722632 68.6078126,13.0644531 L67.1312501,13.0644531 C67.1312501,12.6191384 66.9916031,12.2705091 66.7123048,12.0185547 C66.4330066,11.7666003 66.0335965,11.640625 65.5140626,11.640625 C65.0296852,11.640625 64.6537124,11.7441396 64.386133,11.9511719 C64.1185535,12.1582042 63.9847658,12.4472638 63.9847658,12.8183594 C63.9847658,13.1308609 64.1292956,13.3916005 64.4183595,13.6005859 C64.7074235,13.8095714 65.1839812,14.0126943 65.848047,14.2099609 C66.5121128,14.4072275 67.0453106,14.6318347 67.4476564,14.8837891 C67.8500022,15.1357434 68.1449211,15.4248031 68.332422,15.7509766 C68.519923,16.0771501 68.613672,16.4589822 68.613672,16.8964844 C68.613672,17.6074254 68.3412138,18.1728495 67.7962892,18.5927734 C67.2513646,19.0126974 66.5121142,19.2226562 65.5785158,19.2226562 C64.9613252,19.2226562 64.393948,19.1083996 63.8763673,18.8798828 C63.3587866,18.651366 62.9564469,18.3359395 62.6693361,17.9335938 C62.3822253,17.531248 62.238672,17.0625027 62.238672,16.5273438 L63.7210939,16.5273438 C63.7210939,17.0117212 63.8812485,17.3867174 64.2015626,17.6523438 C64.5218767,17.9179701 64.9808565,18.0507812 65.5785158,18.0507812 C66.0941433,18.0507812 66.4818348,17.9462901 66.7416017,17.7373047 C67.0013686,17.5283193 67.1312501,17.2519548 67.1312501,16.9082031 Z M71.9609377,11.2246094 L71.9609377,12.765625 L73.0800783,12.765625 L73.0800783,13.8203125 L71.9609377,13.8203125 L71.9609377,17.359375 C71.9609377,17.6015637 72.0087888,17.7763667 72.1044924,17.8837891 C72.200196,17.9912115 72.3710927,18.0449219 72.6171877,18.0449219 C72.781251,18.0449219 72.947265,18.0253908 73.1152346,17.9863281 L73.1152346,19.0878906 C72.7910142,19.1777348 72.4785173,19.2226562 72.1777346,19.2226562 C71.0839791,19.2226562 70.5371096,18.6191467 70.5371096,17.4121094 L70.5371096,13.8203125 L69.4941408,13.8203125 L69.4941408,12.765625 L70.5371096,12.765625 L70.5371096,11.2246094 L71.9609377,11.2246094 Z M74.1246096,15.8769531 C74.1246096,15.2558563 74.2476552,14.6962916 74.4937502,14.1982422 C74.7398452,13.7001928 75.0855449,13.3173842 75.5308596,13.0498047 C75.9761743,12.7822252 76.4878879,12.6484375 77.0660158,12.6484375 C77.9214889,12.6484375 78.6158179,12.9238254 79.1490237,13.4746094 C79.6822294,14.0253934 79.9703125,14.7558548 80.0132815,15.6660156 L80.0191408,16 C80.0191408,16.6250031 79.8990249,17.1835913 79.6587893,17.6757812 C79.4185537,18.1679712 79.0748071,18.5488268 78.6275393,18.8183594 C78.1802714,19.087892 77.663675,19.2226562 77.0777346,19.2226562 C76.1831989,19.2226562 75.4673857,18.9248077 74.9302737,18.3291016 C74.3931616,17.7333955 74.1246096,16.9394581 74.1246096,15.9472656 L74.1246096,15.8769531 Z M75.5484377,16 C75.5484377,16.652347 75.683202,17.1630841 75.9527346,17.5322266 C76.2222672,17.901369 76.5972634,18.0859375 77.0777346,18.0859375 C77.5582057,18.0859375 77.9322254,17.8984394 78.1998049,17.5234375 C78.4673844,17.1484356 78.6011721,16.599613 78.6011721,15.8769531 C78.6011721,15.2363249 78.4634782,14.7285175 78.1880862,14.3535156 C77.9126942,13.9785138 77.5386745,13.7910156 77.0660158,13.7910156 C76.6011698,13.7910156 76.2320328,13.9755841 75.958594,14.3447266 C75.6851551,14.713869 75.5484377,15.2656213 75.5484377,16 Z M84.9425784,14.0664062 C84.7550774,14.0351561 84.56172,14.0195312 84.3625003,14.0195312 C83.7101532,14.0195312 83.2707045,14.2695287 83.0441409,14.7695312 L83.0441409,19.1054688 L81.6203128,19.1054688 L81.6203128,12.765625 L82.9796878,12.765625 L83.014844,13.4746094 C83.3585957,12.9238254 83.8351535,12.6484375 84.4445315,12.6484375 C84.6476575,12.6484375 84.8156246,12.675781 84.9484378,12.7304688 L84.9425784,14.0664062 Z M88.9226565,19.2226562 C88.0203083,19.2226562 87.2888703,18.9384794 86.7283206,18.3701172 C86.1677709,17.801755 85.8875003,17.0449266 85.8875003,16.0996094 L85.8875003,15.9238281 C85.8875003,15.2910125 86.0095694,14.7255884 86.2537112,14.2275391 C86.4978531,13.7294897 86.8406231,13.3417983 87.2820315,13.0644531 C87.72344,12.787108 88.2156226,12.6484375 88.758594,12.6484375 C89.6218796,12.6484375 90.2888651,12.9238254 90.7595706,13.4746094 C91.2302761,14.0253934 91.4656253,14.8046825 91.4656253,15.8125 L91.4656253,16.3867188 L87.3230472,16.3867188 C87.3660161,16.9101589 87.5408191,17.3242172 87.8474612,17.6289062 C88.1541034,17.9335953 88.5398417,18.0859375 89.0046878,18.0859375 C89.6570348,18.0859375 90.1882795,17.8222683 90.5984378,17.2949219 L91.3660159,18.0273438 C91.1121084,18.4062519 90.7732446,18.7001943 90.3494143,18.9091797 C89.9255841,19.1181651 89.4500029,19.2226562 88.9226565,19.2226562 Z M88.7527347,13.7910156 C88.3621077,13.7910156 88.0466812,13.927733 87.8064456,14.2011719 C87.56621,14.4746107 87.4128912,14.8554663 87.3464847,15.34375 L90.0593753,15.34375 L90.0593753,15.2382812 C90.0281251,14.7617164 89.9011733,14.4013684 89.6785159,14.1572266 C89.4558585,13.9130847 89.1472679,13.7910156 88.7527347,13.7910156 Z" id="App-Store"></path>
                            </g>
                        </g>
                    </g>
                </g>
            </g>
        </g>
    </g>
</svg>