<svg xmlns="http://www.w3.org/2000/svg" width="56" height="56" viewBox="0 0 56 56">
    <g fill="none" fill-rule="evenodd">
        <path stroke="#181818" d="M18.043 12.5H38c.799 0 1.5.406 1.5 1.209v30.185c0 .803-.701 1.548-1.5 1.548H18.043c-.798 0-1.543-.745-1.543-1.548V13.709c0-.803.745-1.209 1.543-1.209zm6.457-2.436V8.943c0-.806.696-1.443 1.5-1.443h4c.804 0 1.5.637 1.5 1.443v1.121"/>
        <path fill="#181818" d="M22.129 28.763h5.566l-3.656 8.88L34.386 26.56l-5.526.006 2.595-7.31z"/>
    </g>
</svg>
