<svg xmlns="http://www.w3.org/2000/svg" width="56" height="56" viewBox="0 0 56 56">
    <g fill="none" fill-rule="evenodd">
        <path stroke="#181818" d="M35.228 43.055l.581 1.19c.566.982-.037 2.255-1.17 2.255H20.925c-1.136 0-1.845-1.273-1.278-2.254l.718-1.243M10.491 24.5c0-9.666 7.834-17.5 17.5-17.5 9.664 0 17.5 7.834 17.5 17.5 0 9.664-7.836 17.5-17.5 17.5-9.666 0-17.5-7.836-17.5-17.5zm9.509.092a7.593 7.593 0 1 0 15.187-.002A7.593 7.593 0 0 0 20 24.592zm5.5-16.035c0 .608.485.943 1.09.943h2.94c.609 0 .97-.335.97-.943"/>
        <path fill="#181818" d="M24 24.645a3.643 3.643 0 1 1 7.288 0 3.643 3.643 0 1 1-7.288 0"/>
    </g>
</svg>
