<svg xmlns="http://www.w3.org/2000/svg" width="56" height="56" viewBox="0 0 56 56">
    <g fill="none" fill-rule="evenodd">
        <path stroke="#fff" d="M11.287 27.654C11.287 18.457 18.742 11 27.939 11c9.198 0 16.656 7.457 16.656 16.654 0 9.199-7.458 16.654-16.656 16.654-9.197 0-16.652-7.455-16.652-16.654zm36.806-8.537a18.965 18.965 0 0 1 .058 16.486m4.407-20.058a27.28 27.28 0 0 1 .076 23.614M7.692 35.603a18.965 18.965 0 0 1-.06-16.486M3.225 39.175a27.286 27.286 0 0 1-.076-23.615"/>
        <path fill="#fff" d="M29.011 37.832l-.987 5.604v-4.66l-1.861.895v-.959l1.85-.88h.998zm-8.298-7.612v6.52h1.53v.835h-4.07v-.835h1.552v-5.576l-1.86.894v-.956l1.85-.882h.998zm15.639-.03v6.702h1.688v.65h-4.07v-.65h1.552v-5.764l-1.857.895v-.955l1.847-.878h.84zm-8.165-5.573c.79 0 1.387.318 1.788.963.404.643.606 1.59.606 2.855 0 1.255-.202 2.206-.606 2.846-.401.643-.997.961-1.788.961-.785 0-1.379-.318-1.78-.96-.404-.641-.604-1.592-.604-2.847 0-1.265.2-2.212.604-2.855.401-.645.995-.963 1.78-.963zm15.216-.315v.79c-.464 0-.809.252-1.038.744-.23.5-.345 1.26-.345 2.283 0 .347.019.679.053.993l.04.31 1.29-2.055v1.298l-1.06 1.662c.225.494.537.764.937.809l.123.006v.791c-.787 0-1.379-.322-1.782-.967-.401-.639-.604-1.592-.604-2.847 0-1.26.203-2.21.604-2.852.403-.645.995-.965 1.782-.965zm-30.204.14v6.514h1.532v.838h-3.189v-.838h.671v-5.575l-.774.373.006-.953.758-.359h.996zm16.281 2.515l-2.353 3.684c.247.543.602.813 1.06.813.472 0 .817-.246 1.05-.746.227-.497.343-1.253.343-2.273 0-.546-.037-1.038-.1-1.478zm-1.293-1.55c-.462 0-.809.248-1.036.745-.231.5-.345 1.257-.345 2.283 0 .342.017.674.052.99l.041.31 2.304-3.67c-.252-.436-.59-.657-1.016-.657zm-8.309-8.396c.791 0 1.387.32 1.788.965.404.645.607 1.594.607 2.851 0 1.26-.203 2.208-.607 2.853-.4.642-.997.967-1.788.967-.782 0-1.378-.325-1.782-.967-.403-.645-.6-1.594-.6-2.853 0-1.257.197-2.206.6-2.85.404-.645 1-.966 1.782-.966zm15.8-.03c.79 0 1.386.32 1.787.965.402.644.604 1.59.604 2.85 0 1.257-.202 2.208-.604 2.849-.401.647-.997.965-1.788.965-.785 0-1.377-.318-1.782-.965-.402-.64-.602-1.592-.602-2.849 0-1.26.2-2.206.602-2.85.405-.645.997-.965 1.782-.965zm-14.506 2.372l-2.354 3.682c.25.545.602.817 1.06.817.473 0 .82-.247 1.048-.746.23-.499.343-1.26.343-2.279 0-.543-.034-1.03-.097-1.474zm15.795-.03l-2.35 3.681c.247.546.602.817 1.06.817.47 0 .817-.251 1.048-.748.23-.494.345-1.257.345-2.277 0-.543-.037-1.032-.103-1.474zm-17.089-1.519c-.462 0-.809.247-1.036.746-.229.497-.342 1.257-.342 2.277 0 .35.016.681.05.996l.04.31 2.304-3.672c-.25-.436-.59-.657-1.016-.657zm15.8-.035c-.463 0-.812.252-1.037.746-.231.5-.345 1.26-.345 2.281 0 .463.03.899.094 1.304l2.303-3.674c-.25-.438-.59-.657-1.016-.657zm-6.66-6.093v6.516h1.533v.836h-4.073v-.836h1.553V12.62l-1.859.896v-.959l1.85-.88h.997z"/>
    </g>
</svg>
