<?xml version="1.0" encoding="UTF-8"?>
<svg width="90px" height="64px" viewBox="0 0 90 64" version="1.1" xmlns="http://www.w3.org/2000/svg" xmlns:xlink="http://www.w3.org/1999/xlink">
    <!-- Generator: sketchtool 51.3 (57544) - http://www.bohemiancoding.com/sketch -->
    <title>ED1CAC46-9AF9-4046-B1C4-E707E251A42B</title>
    <desc>Created with sketchtool.</desc>
    <defs></defs>
    <g id="Graphics" stroke="none" stroke-width="1" fill="none" fill-rule="evenodd">
        <g id="Graphics-/-expoprotection" fill="#5E5E5E">
            <g id="expoprotection" transform="translate(0.500000, 1.500000)">
                <polygon id="Fill-1" points="0 57.4557593 29.0803388 57.4714795 29.0813213 55.7958082 0.000818758554 55.780088"></polygon>
                <polygon id="Fill-2" points="59.1245202 57.48774 88.2050228 57.5034602 88.2058416 55.8277889 59.125339 55.8120687"></polygon>
                <polygon id="Fill-3" points="0.0238749994 13.4137541 40.1807071 13.4355331 39.4908211 11.7595344 0.024693758 11.7382466"></polygon>
                <polygon id="Fill-4" points="45.7375722 13.4385134 88.2286849 13.4614386 88.2296674 11.7859311 46.3305172 11.7633334"></polygon>
                <polygon id="Fill-5" points="37.8226169 -1.63751711e-05 39.7299968 5.97380979 34.6379736 9.63366053 40.9085179 9.66591961 43.2796427 17.7580379 44.7843572 9.68606107 51.0549014 9.71815641 46.0007049 6.00623263 47.9690004 0.0522204206 42.877141 3.71190741 37.8227807 -1.63751711e-05"></polygon>
                <polygon id="Fill-6" points="0.450677459 26.4009515 0.454116245 19.6470121 1.53536879 19.6476672 1.53209376 25.398136 2.81541592 25.3989547 2.81492466 26.4022615"></polygon>
                <polygon id="Fill-7" points="3.42203413 26.4025399 3.42563667 19.6486005 5.95379933 19.6500743 5.95330807 20.653381 4.50623421 20.6525623 4.5052517 22.3411699 5.61499704 22.3418249 5.61434203 23.3451317 4.50476044 23.3444767 4.50361418 25.3997244 6.03796771 25.4007069 6.0373127 26.4040136"></polygon>
                <path d="M7.90953514,26.5113692 C6.94454631,26.510878 6.51109553,25.8347472 6.41464577,24.6868477 L7.44775531,24.503937 C7.52406361,25.3241693 7.66898387,25.5270577 7.91019014,25.5270577 C8.18021672,25.5272215 8.29582542,25.3536446 8.29615293,24.9190476 C8.29648043,24.2732109 8.09391956,23.9738727 7.48672822,23.2979057 C6.80208232,22.6027797 6.46442629,21.9659492 6.46491754,21.1938599 C6.4654088,20.24803 6.9293174,19.5442252 7.85516957,19.5447165 C8.80099945,19.5452077 9.17697338,20.1822019 9.30207969,21.1761747 L8.28862035,21.387742 C8.21198455,20.7219275 8.09588458,20.5196941 7.85467831,20.5195304 C7.6234609,20.5193666 7.50719718,20.6832821 7.50703343,21.1077265 C7.50670593,21.5806415 7.6709489,21.8601656 8.20101318,22.4298578 C8.9826001,23.2214336 9.34874892,23.8972369 9.34825767,24.8232529 C9.34776641,25.8172257 8.82638097,26.5118605 7.90953514,26.5113692" id="Fill-8"></path>
                <polygon id="Fill-10" points="13.4990033 20.6574093 13.4957283 26.4080419 12.4152945 26.4073869 12.4184057 20.6569181 11.5115488 20.6562631 11.51204 19.6529563 14.4161766 19.6545938 14.4156854 20.6579006"></polygon>
                <path d="M16.2967013,20.5723239 L16.0458336,20.5721602 L16.0446874,22.5502809 L16.266571,22.5504446 C16.633211,22.5506084 16.8169405,22.2799268 16.817268,21.5659693 C16.8177592,20.8228641 16.6731664,20.5724877 16.2967013,20.5723239 Z M16.8722885,26.4097449 L16.3143865,23.4379789 L16.0441961,23.4379789 L16.0425586,26.4094174 L14.9714587,26.4087624 L14.9750612,19.6548231 L16.3838172,19.6556419 C17.2232084,19.6561331 17.9085094,20.1095616 17.9076906,21.5183176 C17.9071993,22.300232 17.685152,22.83046 17.3085231,23.1296344 L17.9723725,26.4103999 L16.8722885,26.4097449 Z" id="Fill-12"></path>
                <path d="M20.0319597,20.5453049 C19.6746534,20.5451412 19.5782037,20.9697493 19.5770574,23.015172 C19.5759112,25.0797535 19.7010175,25.5236844 20.0391647,25.5238482 C20.3866459,25.5240119 20.5024183,25.0994037 20.5035646,23.0539811 C20.5047109,20.9893995 20.3794408,20.5454687 20.0319597,20.5453049 M20.0190233,26.5179848 C18.8321509,26.5173298 18.4660021,25.3882618 18.4673121,23.0528349 C18.4686221,20.698904 18.8457423,19.550677 20.042276,19.551332 C21.2384823,19.551987 21.6242813,20.7100391 21.6229713,23.0161545 C21.6216613,25.3700853 21.2348797,26.5186398 20.0190233,26.5179848" id="Fill-14"></path>
                <path d="M23.6592893,20.576254 L23.4084217,20.576254 L23.4072754,22.6698196 L23.629159,22.6699834 C23.9957991,22.6701471 24.1795285,22.3611476 24.179856,21.6182061 C24.1803473,20.8559419 24.0357545,20.5764177 23.6592893,20.576254 M23.6867996,23.5959993 L23.4067842,23.5958355 L23.4051467,26.4133475 L22.3340467,26.4128562 L22.3376493,19.6589169 L23.7562303,19.6595719 C24.5766264,19.6600632 25.2710974,20.1333056 25.2702786,21.5705544 C25.2694599,22.9989605 24.5645088,23.5964905 23.6867996,23.5959993" id="Fill-16"></path>
                <polygon id="Fill-18" points="27.8341556 26.4157382 27.8357931 23.3187021 26.9480951 23.3182109 26.9462938 26.415247 25.8655325 26.4147557 25.869135 19.6608164 26.9500601 19.6613077 26.9485863 22.3145766 27.8364481 22.3150679 27.8377581 19.6617989 28.9185194 19.6624539 28.9149169 26.4162295"></polygon>
                <path d="M31.2433516,19.287266 L30.5392192,19.2869385 L31.2443341,17.7432511 L32.4310427,17.7439061 L31.2433516,19.287266 Z M29.7726974,26.4168518 L29.7763,19.6629124 L32.3044626,19.6642224 L32.3041351,20.6675292 L30.8568975,20.6667104 L30.855915,22.3554818 L31.9654966,22.3561368 L31.9650053,23.3592798 L30.8554237,23.3587886 L30.8542775,25.4140363 L32.388631,25.414855 L32.387976,26.4181618 L29.7726974,26.4168518 Z" id="Fill-20"></path>
                <polygon id="Fill-22" points="33.0143918 26.4185384 33.0179943 19.6645991 35.5459933 19.6660728 35.545502 20.6693796 34.0985919 20.6685608 34.0976094 22.3571685 35.2073547 22.3578235 35.2066997 23.3611302 34.0969544 23.3604752 34.0959719 25.4157229 35.6301616 25.4167054 35.6295066 26.4200122"></polygon>
                <path d="M37.5017454,26.5273514 C36.5370841,26.5268601 36.1028146,25.8507293 36.0068561,24.7028298 L37.0398019,24.5199192 C37.1162739,25.3401515 37.2613579,25.5430399 37.5022367,25.5430399 C37.7725908,25.5432036 37.8881995,25.3696268 37.8883632,24.9350298 C37.8886907,24.289193 37.6864574,23.9898549 37.0791023,23.3138878 C36.3944564,22.6187618 36.0566366,21.9819314 36.0571278,21.2098421 C36.0576191,20.2640122 36.5216914,19.5602074 37.4477074,19.5606986 C38.3932098,19.5611899 38.7693474,20.198184 38.89429,21.1921569 L37.8809944,21.4037241 C37.8041948,20.7379097 37.6882586,20.5356763 37.4470524,20.5355126 C37.2159987,20.5353488 37.0994075,20.6992643 37.0992437,21.1237087 C37.0989162,21.5966236 37.2634867,21.8761478 37.7932235,22.44584 C38.5743191,23.2374158 38.9409592,23.9132191 38.940468,24.839235 C38.9399767,25.8332079 38.4184275,26.5278427 37.5017454,26.5273514" id="Fill-24"></path>
                <polygon id="Fill-26" points="41.3994783 26.4230088 41.4030808 19.6690695 43.9310797 19.6705433 43.9304247 20.67385 42.4835146 20.6730312 42.4826959 22.3618026 43.5922774 22.3622939 43.5917862 23.3656006 42.4820408 23.3649456 42.4810583 25.4203571 44.0154119 25.4211758 44.0149206 26.4244826"></polygon>
                <path d="M46.4058921,26.4257271 L46.1844998,25.4514044 C46.0688911,24.9301827 45.9726051,24.4672566 45.9246258,24.0616436 C45.8566689,24.4572678 45.7600553,24.9201939 45.6442829,25.4604108 L45.4309144,26.4252358 L44.3606332,26.4247446 L45.3755663,22.9610684 L44.4213851,19.6708053 L45.5217966,19.6712965 L45.7045435,20.4720424 C45.800502,20.9066394 45.897443,21.3697293 45.9452585,21.8134964 C46.0030629,21.3697293 46.0998401,20.9068032 46.1966174,20.482195 L46.3805106,19.6717878 L47.4419492,19.6724428 L46.4848204,22.9135804 L47.5054848,26.4263821 L46.4058921,26.4257271 Z" id="Fill-28"></path>
                <path d="M49.3612666,20.5901565 L49.1102352,20.5899927 L49.109089,22.6837221 L49.3309725,22.6838859 C49.6976126,22.6840496 49.881342,22.3750501 49.8816695,21.6321086 C49.8821608,20.8698444 49.737568,20.5903203 49.3612666,20.5901565 M49.3886131,23.609738 L49.1085977,23.6095743 L49.1069602,26.42725 L48.036024,26.426595 L48.0397903,19.6726557 L49.4583714,19.6734744 C50.2786037,19.6739657 50.9732384,20.1472081 50.9724197,21.5844569 C50.9716009,23.0128631 50.2664861,23.6102293 49.3886131,23.609738" id="Fill-30"></path>
                <path d="M52.9892349,20.5631375 C52.6319286,20.5629737 52.5354789,20.9874181 52.5343326,23.0330045 C52.5331864,25.0975861 52.6582927,25.5413532 52.9962762,25.5416807 C53.3437573,25.5418445 53.4595298,25.1172363 53.4605123,23.0718137 C53.4616586,21.0070684 53.3365523,20.5633012 52.9892349,20.5631375 M52.9761347,26.5358174 C51.7892623,26.5351624 51.4232773,25.4060943 51.4245873,23.0706674 C51.4258973,20.7167366 51.8030175,19.5685096 52.9993875,19.5691646 C54.1955937,19.5698196 54.5815565,20.7278717 54.5802465,23.033987 C54.5789365,25.3879179 54.1918274,26.5364724 52.9761347,26.5358174" id="Fill-32"></path>
                <path d="M56.6165481,20.5940865 L56.3655168,20.5939228 L56.3642068,22.6876522 L56.5860903,22.6878159 C56.9530579,22.6879797 57.1364598,22.3789802 57.1369511,21.6360387 C57.1372786,20.8737745 56.9930133,20.5942503 56.6165481,20.5940865 M56.6438947,23.6136681 L56.3637155,23.6135043 L56.3622417,26.43118 L55.2911418,26.430525 L55.2949081,19.6765857 L56.7134892,19.6774045 C57.5337215,19.6778957 58.2283562,20.1511382 58.2275375,21.5883869 C58.2267187,23.0167931 57.5216039,23.6141593 56.6438947,23.6136681" id="Fill-34"></path>
                <path d="M60.1479357,20.5960024 L59.8969043,20.5958387 L59.895758,22.5739594 L60.1176416,22.5741231 C60.4846092,22.5742869 60.6680111,22.3036053 60.6683386,21.5896478 C60.6688299,20.8467063 60.5245646,20.5961662 60.1479357,20.5960024 Z M60.7233592,26.4334234 L60.1656209,23.4616574 L59.8952668,23.4616574 L59.8936293,26.4330959 L58.8226931,26.4324409 L58.8262956,19.6785016 L60.2348878,19.6793204 C61.0744428,19.6798116 61.7597438,20.1332401 61.7590888,21.5419961 C61.7585975,22.3240742 61.5362227,22.8543023 61.1597575,23.1533129 L61.8234432,26.4340784 L60.7233592,26.4334234 Z" id="Fill-36"></path>
                <path d="M63.8825554,20.568967 C63.5252492,20.5688033 63.4287994,20.9934115 63.4276532,23.0388341 C63.4265069,25.1034157 63.5516132,25.5473465 63.8899243,25.5475103 C64.2370779,25.547674 64.3531779,25.1230659 64.3541604,23.0776432 C64.3553066,21.0130617 64.2302003,20.5691308 63.8825554,20.568967 M63.8694553,26.5416469 C62.6825829,26.5409919 62.3165978,25.4119239 62.3179078,23.076497 C62.3192179,20.7225661 62.696338,19.5743391 63.8930355,19.5749941 C65.0892418,19.5756491 65.4748771,20.7337012 65.4735671,23.0399803 C65.472257,25.3937474 65.0854755,26.5423019 63.8694553,26.5416469" id="Fill-38"></path>
                <polygon id="Fill-40" points="67.7214523 20.6866718 67.7181773 26.4373043 66.6375797 26.4366493 66.640691 20.6861805 65.7339978 20.6856892 65.734489 19.6823825 68.6387894 19.6838563 68.6381344 20.687163"></polygon>
                <polygon id="Fill-42" points="69.1939404 26.4380412 69.1973792 19.6841019 71.7257056 19.6855757 71.7252144 20.6888824 70.2779768 20.6880636 70.2769942 22.376835 71.3867396 22.3773263 71.3862483 23.380633 70.276503 23.379978 70.2753567 25.4353895 71.809874 25.4362083 71.809219 26.439515"></polygon>
                <path d="M73.7290932,26.5469525 C72.5811937,26.5462975 72.1763995,25.4945202 72.1775457,23.0819663 C72.1788557,20.6792374 72.5656373,19.5798084 73.7528372,19.5804634 C74.8041232,19.5809547 75.151113,20.4303348 75.2084261,21.6365299 L74.1471513,21.7904565 C74.0796856,20.8929334 74.0223725,20.5744363 73.7421933,20.5742726 C73.404701,20.5741088 73.2884373,20.950574 73.2872911,23.0441396 C73.2861448,25.1476941 73.4114149,25.5526521 73.7683936,25.5528158 C74.0095999,25.5529796 74.0870544,25.331096 74.1838317,24.366271 L75.2259476,24.5213438 C75.0808636,25.8143273 74.7710453,26.5474437 73.7290932,26.5469525" id="Fill-44"></path>
                <polygon id="Fill-46" points="77.5537436 20.6920264 77.5504686 26.442659 76.4698711 26.442004 76.4729824 20.6913714 75.5661254 20.6908802 75.5667804 19.6875734 78.470917 19.689211 78.4704257 20.6925177"></polygon>
                <polygon id="Fill-48" points="79.0463732 26.4434123 79.0499758 19.689473 80.1304096 19.690128 80.126807 26.4439035"></polygon>
                <path d="M82.4355915,20.5790541 C82.0782853,20.5788904 81.9818355,21.0033348 81.9806893,23.0489212 C81.979543,25.1135028 82.1046493,25.5572699 82.4429604,25.5575974 C82.790114,25.5577611 82.9062139,25.133153 82.9071965,23.0877303 C82.9083427,21.022985 82.7832364,20.5792179 82.4355915,20.5790541 M82.4228189,26.551734 C81.235619,26.551079 80.8696339,25.422011 80.8709439,23.0865841 C80.8722539,20.7326532 81.2493741,19.5844262 82.4460716,19.5850812 C83.6422779,19.5857363 84.0279132,20.7437884 84.0266032,23.0499037 C84.0252931,25.4038345 83.6385116,26.552389 82.4228189,26.551734" id="Fill-50"></path>
                <path d="M86.9670762,26.4476371 L86.3125607,24.3729029 C86.1101635,23.7069247 85.8404645,22.7610948 85.7153582,22.2596871 C85.724692,22.751761 85.7435235,23.668443 85.743196,24.2667918 L85.7420497,26.4469821 L84.7382517,26.4464908 L84.7418542,19.6925515 L85.7166682,19.6930428 L86.2460775,21.3433325 C86.4294794,21.8933745 86.6896808,22.7714112 86.8144597,23.282644 C86.8054533,22.8197179 86.7864581,21.8935382 86.7867856,21.391803 L86.7877681,19.6936978 L87.7909111,19.694189 L87.7873086,26.4481283 L86.9670762,26.4476371 Z" id="Fill-52"></path>
                <polygon id="Fill-54" points="57.5837149 29.1883986 52.5193657 29.1856148 49.2708593 33.7659139 51.8456912 37.4044769"></polygon>
                <polygon id="Fill-56" points="57.8328631 49.3923139 57.8436707 29.1886278 54.3210439 29.1866628 54.3100726 49.3905127"></polygon>
                <path d="M44.6583666,34.3841585 L39.456466,40.9812237 L34.2542379,47.5779613 C35.942518,48.9094265 38.138756,49.5966924 40.4427425,49.3243733 C45.0505519,48.7795714 48.3442538,44.6027565 47.7997794,39.9949471 C47.5271328,37.6909605 46.347138,35.7156237 44.6583666,34.3841585" id="Fill-58"></path>
                <path d="M38.4701731,32.6379921 C33.8620362,33.1824666 30.5683342,37.359609 31.1131362,41.9674183 C31.3854553,44.2712412 32.5657776,46.2467418 34.2542215,47.5778795 L44.6583502,34.3842404 C42.9700701,33.0527752 40.7738321,32.3653455 38.4701731,32.6379921" id="Fill-60"></path>
                <path d="M15.4860975,32.4699992 C13.5818289,34.9670491 13.2939534,38.1883727 14.4492217,40.8824159 L23.3239094,29.2435993 C20.4202641,28.8425713 17.3902024,29.9726219 15.4860975,32.4699992" id="Fill-62"></path>
                <polygon id="Fill-64" points="29.7360007 33.815023 24.6714878 33.8122393 22.0925621 37.1522829 24.6677215 40.7908459"></polygon>
                <polygon id="Fill-66" points="22.1717688 44.364858 24.6676724 40.7908132 22.0928404 37.1522502 19.4980308 40.8101359 13.7601709 48.8996341 17.9155343 48.9019267 19.0026819 48.9024179 27.3004724 48.9068392 27.3029286 44.3676418"></polygon>
                <path d="M68.0369527,45.909708 C67.3996311,45.9093805 66.8235525,45.6734143 66.3683228,45.2959666 C65.7856942,44.8132266 65.4067727,44.0932103 65.4071002,43.2770718 C65.407919,41.8237753 66.5867676,40.646728 68.0399002,40.6475468 C68.6323539,40.6478743 69.1732258,40.8509264 69.6127354,41.1817049 C70.2513671,41.6621524 70.6700802,42.4195041 70.669589,43.2798556 C70.6687702,44.7329882 69.4900854,45.9105268 68.0369527,45.909708 M68.1081847,31.7740053 C68.5848659,31.7743328 69.0160242,31.9508572 69.3566278,32.2330014 C69.7923711,32.5942377 70.0754978,33.1329808 70.0751703,33.7432834 C70.0745153,34.8301035 69.1932035,35.710924 68.1060559,35.710269 C67.6629438,35.7099415 67.2584771,35.5579799 66.9296636,35.3107148 C66.4518362,34.9514435 66.1385791,34.3848626 66.1389066,33.7409909 C66.1393979,32.6541708 67.0212009,31.7733503 68.1081847,31.7740053 M74.4122981,42.3828237 C74.2053159,40.6328092 73.3086115,39.132516 72.0262719,38.1211854 C71.7426539,37.8975006 71.437257,37.701981 71.1189237,37.5287317 C72.324955,36.5303375 73.0177885,34.9620874 72.8203039,33.2913287 C72.6657223,31.9824613 71.9951591,30.860107 71.0357378,30.1034104 C70.0763165,29.3470412 68.8283647,28.9564934 67.5196611,29.1114025 C64.9015987,29.4207295 63.0299167,31.7939831 63.3395711,34.4120454 C63.4892402,35.6798112 64.1259069,36.7695788 65.0368576,37.5243104 C62.8075418,38.7327981 61.4217111,41.2097064 61.7375882,43.8811518 C61.9445703,45.6313301 62.8411109,47.1316233 64.1236143,48.1429539 C65.405954,49.1542844 67.0740927,49.6761611 68.8242709,49.4695065 C72.3241363,49.0557059 74.8260987,45.8828528 74.4122981,42.3828237" id="Fill-68"></path>
                <path d="M68.8242054,49.4695556 C72.3240708,49.055755 74.8260331,45.8829019 74.4122326,42.3828728 C74.2052504,40.6328583 73.3087098,39.1325651 72.0263701,38.1210708 C71.940728,38.0539326 71.8500096,37.993672 71.7607649,37.9312826 L69.3331458,41.0026096 C69.429268,41.0581215 69.5244078,41.1154346 69.6126699,41.181754 C70.2514654,41.6622015 70.6700147,42.4195532 70.6696872,43.2799047 C70.6688685,44.7330374 69.4900199,45.9105759 68.0368872,45.9097572 C67.3997293,45.9092659 66.823487,45.6734634 66.3682573,45.2960157 C66.2814689,45.2241287 66.2007393,45.1453642 66.1234485,45.0631608 L63.8659674,47.9191544 C63.9514458,47.9944802 64.0341404,48.0725898 64.1235488,48.143003 C65.4058885,49.1543336 67.0740272,49.6762103 68.8242054,49.4695556" id="Fill-70"></path>
                <path d="M35.3891191,55.4075529 C35.2841543,55.2850666 35.161668,55.1904181 35.021824,55.1232799 C34.8818163,55.0563055 34.7360773,55.0227364 34.584607,55.0227364 C34.4270778,55.0227364 34.2857601,55.0725169 34.16049,55.1717504 C34.0348925,55.270984 33.9725031,55.4345719 33.9725031,55.6621868 C33.9725031,55.8549226 34.03653,56.0052466 34.1647476,56.1133228 C34.2929652,56.2213989 34.4825896,56.3396276 34.7331298,56.4681727 C34.8739562,56.5382585 35.0223153,56.6214443 35.1777157,56.7177303 C35.333116,56.8140163 35.47558,56.9322451 35.6046164,57.0724165 C35.7338165,57.212588 35.8410738,57.3804335 35.926061,57.5761168 C36.0110481,57.7718001 36.0537873,58.0038363 36.0537873,58.2725528 C36.0537873,58.6054601 36.0007318,58.8989031 35.8952757,59.152882 C35.789492,59.4068609 35.6473556,59.6171181 35.4682112,59.7834899 C35.2893943,59.9498616 35.0827397,60.0754592 34.8485747,60.1601188 C34.614246,60.2447784 34.3717297,60.2871901 34.1211896,60.2871901 C33.7479995,60.2871901 33.4083784,60.2172681 33.1023265,60.0772604 C32.7962745,59.9374165 32.5498282,59.7743198 32.363315,59.5874791 L33.0803837,58.5381581 C33.2144964,58.6781658 33.369078,58.7904995 33.5438011,58.8748316 C33.7188517,58.9594913 33.896686,59.0017392 34.0773042,59.0017392 C34.2462959,59.0017392 34.3892512,58.9463911 34.5058424,58.8355312 C34.6224336,58.7248351 34.6807292,58.5702534 34.6807292,58.3721139 C34.6807292,58.1680792 34.6108072,58.0062925 34.4709633,57.8867538 C34.3309556,57.767215 34.1267572,57.6404712 33.8586956,57.5061948 C33.6895401,57.4246465 33.530701,57.3344193 33.3821781,57.2351857 C33.2334916,57.136116 33.1023265,57.0165772 32.9886828,56.8767332 C32.8748753,56.7367255 32.7861219,56.5736288 32.7219313,56.3869519 C32.6575768,56.2004387 32.6256452,55.9788826 32.6256452,55.7222837 C32.6256452,55.3784051 32.6826308,55.0826695 32.7962745,54.8347494 C32.9099182,54.5869931 33.0586048,54.3842685 33.2423342,54.2270668 C33.4258999,54.0695377 33.6299345,53.9529464 33.8544381,53.8771294 C34.0787779,53.8014761 34.3047553,53.7634857 34.5322064,53.7634857 C34.8701899,53.7634857 35.1734581,53.8185063 35.4415197,53.9285474 C35.7095812,54.0385886 35.9340848,54.1890764 36.1150305,54.3801747 L35.3891191,55.4075529 Z" id="Fill-72"></path>
                <polygon id="Fill-75" points="36.8582176 60.1211131 38.2661548 60.1211131 38.2661548 53.929661 36.8582176 53.929661"></polygon>
                <polygon id="Fill-77" points="39.3679254 60.1210149 39.3679254 53.9295627 40.7845415 53.9295627 40.7845415 58.8267214 42.4374513 58.8267214 42.4374513 60.1210149"></polygon>
                <polygon id="Fill-78" points="45.4630425 60.1210149 43.6878102 60.1210149 42.1924296 53.9295627 43.7752536 53.9295627 44.6148086 58.45959 44.6323301 58.45959 45.4630425 53.9295627 46.9847871 53.9295627"></polygon>
                <polygon id="Fill-79" points="47.5267398 60.1210149 47.5267398 53.9295627 50.5175011 53.9295627 50.5175011 55.1626131 48.864755 55.1626131 48.864755 56.3783058 50.3863359 56.3783058 50.3863359 57.5325916 48.864755 57.5325916 48.864755 58.8617642 50.6224659 58.8617642 50.6224659 60.1210149"></polygon>
                <path d="M53.9455121,55.8709702 C53.9455121,55.7136048 53.9235694,55.5853873 53.8800114,55.4861537 C53.836126,55.3870839 53.7793041,55.3084831 53.7095459,55.2500237 C53.6394602,55.1918919 53.5620056,55.1525915 53.4776735,55.1319588 C53.3930138,55.1116536 53.3099917,55.1015009 53.2284434,55.1015009 L52.7912263,55.1015009 L52.7912263,56.6668035 L53.2022431,56.6668035 C53.4003827,56.6668035 53.5737957,56.6042504 53.722646,56.4786528 C53.8711688,56.3533828 53.9455121,56.1508219 53.9455121,55.8709702 Z M54.028698,60.1209821 L53.2007693,57.6550451 L52.7912263,57.6550451 L52.7912263,60.1209821 L51.4445322,60.1209821 L51.4445322,53.9296937 L53.4249454,53.9296937 C54.0239492,53.9296937 54.4894953,54.0857491 54.8210925,54.3973686 C55.152526,54.7094793 55.3185702,55.1743705 55.3185702,55.7923694 C55.3185702,56.0196568 55.2923699,56.2238552 55.2399694,56.4044733 C55.1877326,56.5852552 55.1194481,56.7396731 55.035116,56.8678906 C54.9509476,56.996272 54.8564629,57.1012368 54.7519893,57.1827852 C54.6473519,57.2644973 54.5456621,57.3226292 54.4470836,57.357672 L55.5021359,60.1209821 L54.028698,60.1209821 Z" id="Fill-80"></path>
            </g>
        </g>
    </g>
</svg>