<svg id="Слой_1" data-name="Слой 1" xmlns="http://www.w3.org/2000/svg" viewBox="0 0 626.34 450.13"><defs><style>.cls-1{fill:#096939;}.cls-1,.cls-2,.cls-3{fill-rule:evenodd;}.cls-2{fill:#fff;}.cls-3{fill:#e30016;}</style></defs><path class="cls-1" d="M400.37,83.58,125.24,274.12a30,30,0,0,0-7.66,7.58,27.43,27.43,0,0,0-4.9,15.95,28.64,28.64,0,0,0,5.16,16,31.5,31.5,0,0,0,8,7.91l274,189.76a37.83,37.83,0,0,0,21,6.49,35.81,35.81,0,0,0,20.68-6.11L716.65,321.16a30.22,30.22,0,0,0,7.66-7.59,27.38,27.38,0,0,0,4.9-15.94,28.68,28.68,0,0,0-5.15-16,31.55,31.55,0,0,0-8-7.91L442.09,84a37.83,37.83,0,0,0-21-6.49A35.8,35.8,0,0,0,400.37,83.58ZM122.45,270.07,397.58,79.54a40.79,40.79,0,0,1,23.51-7,42.8,42.8,0,0,1,23.79,7.36l274,189.76a36.33,36.33,0,0,1,9.22,9.16,33.47,33.47,0,0,1,6,18.74,32.24,32.24,0,0,1-5.76,18.77,35,35,0,0,1-8.91,8.84L444.31,515.73a40.71,40.71,0,0,1-23.51,7A42.59,42.59,0,0,1,397,515.34L123,325.59a36.5,36.5,0,0,1-9.22-9.16,33.55,33.55,0,0,1-6-18.74,32.37,32.37,0,0,1,5.77-18.78A35,35,0,0,1,122.45,270.07Z" transform="translate(-107.77 -72.57)"/><path class="cls-1" d="M137.59,291.94,412.71,101.4c4.53-3.13,12.19-3,17,.39l274,189.76c4.84,3.35,5.09,8.65.56,11.79L429.18,493.87c-4.53,3.14-12.19,3-17-.39l-274-189.75C133.31,300.38,133.06,295.07,137.59,291.94Z" transform="translate(-107.77 -72.57)"/><polygon class="cls-2" points="322.31 99.49 352.05 99.43 327.96 116.87 337.2 145.13 313.17 127.61 289.15 145.13 298.39 116.87 274.3 99.43 304.04 99.49 313.17 71.19 322.31 99.49"/><path class="cls-2" d="M478.73,331.69v6.76h2.84c2.08,0,3.66-1.22,3.66-3.38,0-2.46-1.78-3.38-4.05-3.38Zm-44.76,1h5.78l-3-8.28Zm-85,0h5.79l-3-8.28Zm213.29-52h1.82c2.16,0,3.73-1.26,3.73-3.49s-1.61-3.23-3.73-3.23h-1.82Zm-21.79-7.36c-4.91,0-6.36,4.44-6.36,8.67s1.45,8.66,6.36,8.66,6.36-4.44,6.36-8.66S545.41,273.33,540.5,273.33Zm-99.67,0c-4.91,0-6.36,4.44-6.36,8.67s1.45,8.66,6.36,8.66,6.36-4.44,6.36-8.66S445.74,273.33,440.83,273.33Zm-89.55,7.36h1.81c2.16,0,3.73-1.26,3.73-3.49s-1.61-3.23-3.73-3.23h-1.81ZM327,284.24h5.78l-3-8.27Zm-19.39-9.78h-5.37v3.06c0,4.45-.22,8.1-2.23,12h7.6Zm-58.65,9.78h5.78l-3-8.27Zm245,33.26h6v25.84h-6Zm-15.2,9.3h3c5.1,0,9.66,2.46,9.66,8,0,5.86-4.31,8.52-9.8,8.52H472.7V317.5h6Zm-15.23-3.92v20.46h-6V322.88H450.3V317.5h20.37v5.38Zm-21.9,14.85H432l-2.1,5.61h-6.46l10.3-25.84h6.42l10.26,25.84H443.7Zm-44.2-13.19,0,.84v18h-6V317.5h9.37l5.09,14.82.68,2.71.69-2.75,5.08-14.78h9.37v25.84h-6v-18l0-.82-.23.71-6.15,18.09h-5.5l-6.15-18.1Zm237.37-50.08v20.46h-6V269.08H645v5.38Zm-25.15,4.63h9.1v-10h6v25.84h-6V284.16h-9.1v10.76h-6V269.08h6ZM583,286.41l.93-1.89,8.84-15.44h6.81v25.84h-6V281.6l.06-3.86-.84,1.86-8.92,15.32h-6.82V269.08h6v13.28Zm-20.74-.83v9.34h-6V269.08h7.84c5.3,0,10,2.47,10,8.27,0,5.18-4.2,8.23-9.12,8.23ZM540.5,268.79c7.86,0,12.67,5.35,12.67,13.21s-4.81,13.2-12.67,13.2-12.68-5.34-12.68-13.2S532.63,268.79,540.5,268.79Zm-21,5.67v20.46h-6V274.46h-7.17v-5.38h20.37v5.38Zm-31.82,12,.93-1.89,8.84-15.44h6.82v25.84h-6V281.6l.07-3.86-.84,1.86-8.93,15.32h-6.81V269.08h6v13.28Zm-25.07-7.32h9.11v-10h6v25.84h-6V284.16h-9.11v10.76h-6V269.08h6Zm-21.79-10.3c7.87,0,12.67,5.35,12.67,13.21s-4.8,13.2-12.67,13.2-12.67-5.34-12.67-13.2S433,268.79,440.83,268.79Zm-40,7.33,0,.84v18h-6V269.08h9.37l5.1,14.82.67,2.71.69-2.75,5.09-14.78h9.36v25.84h-6V277l0-.83-.23.71-6.15,18.09h-5.5L401,276.82Zm-23.49-1.66v20.46h-6V274.46H364.1v-5.38h20.38v5.38Zm-26,11.12v9.34h-6V269.08h7.84c5.3,0,10.05,2.47,10.05,8.27,0,5.18-4.21,8.23-9.12,8.23Zm-16.68,3.73H325l-2.1,5.61h-6.46l10.3-25.84h6.42l10.26,25.84H336.7Zm-41,.22c2.28-4,2.81-7.47,2.81-12v-8.44H313.6v20.45h2.84v10.61h-5.95v-5.22h-14v5.22h-5.95V289.53Zm-20.39-10.44h9.1v-10h6v25.84h-6V284.16h-9.1v10.76h-6V269.08h6Zm-16.67,10.22H247l-2.09,5.61h-6.47l10.3-25.84h6.42l10.27,25.84h-6.75Zm-25.15-14.85v20.46h-6V274.46h-7.17v-5.38h20.37v5.38Zm-14.55,14.22.41,5.31-.37.12a20.73,20.73,0,0,1-6.58,1.09c-7.77,0-13.42-4.91-13.42-13.06,0-8.65,6-13.35,14.34-13.35a17.75,17.75,0,0,1,5.65.88l.37.12-.27,5.32-.64-.25a12.88,12.88,0,0,0-4.75-.89c-5,0-8.39,3-8.39,8.1s3.09,8,8,8a11.85,11.85,0,0,0,5-1.06Zm148.31,53.86.22-4.25.57.13a6.71,6.71,0,0,0,1.25.17,2.06,2.06,0,0,0,1.08-.29c2.36-1.49,1.8-9.7,1.8-12.22V317.5h17.32v25.84h-6V322.88h-5.59v4.48c0,4.1.38,11.47-2.8,14.53a6.89,6.89,0,0,1-4.93,1.73,12.57,12.57,0,0,1-2.52-.3h-.07v0h-6.75l-2.09-5.61h-9.58l-2.1,5.61H338.5l10.3-25.84h6.42Z" transform="translate(-107.77 -72.57)"/><path class="cls-2" d="M412.88,389.51A22.68,22.68,0,0,1,423.43,387c6.51,0,13.6,3.14,13.6,10.54a9.48,9.48,0,0,1-3.65,7.64,9.45,9.45,0,0,1,4.79,8.25c0,8.62-8.34,12-15.73,12a22.93,22.93,0,0,1-11-2.59l-1.33-.76,2.64-9.65,2.18,1.17a17.7,17.7,0,0,0,7.14,1.74c1.6,0,4.17-.29,4.17-2.38,0-2.36-3.29-2.49-5-2.49h-5.14V401h5.09c1.35,0,4-.41,4-2.23,0-1.48-2-1.7-3.08-1.7a15.63,15.63,0,0,0-6.44,1.78l-2,1-2.2-6.65-5.11,13.25c-1.71,4.44-3.91,10.13-6.89,13.84a12.7,12.7,0,0,1-10.39,5.15,12.39,12.39,0,0,1-4.4-.67l-1.42-.53.89-9.83,2.24.56a8.87,8.87,0,0,0,2,.18,2.87,2.87,0,0,0,2.64-1.8h0l-10.28-21L372,403.47c3.22,1.68,5,4.61,6.28,8.33a95,95,0,0,0,3.78,10.28l1.35,2.82H371l-.54-1.09a49,49,0,0,1-2.69-7.63c-.77-2.45-1.6-4.93-4.32-5.21V424.9H352V387.59h11.42v10.27l6.82-10.27h21.15l5.36,13v0l.33.88c.08-.29.17-.58.26-.87l4-13h12.24Zm50.27-1.92h29.58v10.28h-9.11v27H472.11v-27h-9v-.15h-12.4v3H463v10.08H450.75v4h13.71V424.9H439.23V387.59Z" transform="translate(-107.77 -72.57)"/><path class="cls-3" d="M474.08,422.93h7.57v-27h9.11v-6.34H465.12v6.34h9Zm-13-20.25H448.78v-6.93h13v-6.19H441.2v33.37h21.29v-6.19H448.78v-7.92h12.27Zm-46.24-5.59a17.89,17.89,0,0,1,7.33-2c3.22,0,5.05,1.48,5.05,3.66,0,2.62-2.57,4.21-6,4.21h-3.12v5.54h3.17c3.12,0,7,.75,7,4.46,0,2.77-2.33,4.36-6.14,4.36a19.78,19.78,0,0,1-8.07-2l-1.58,5.79a21,21,0,0,0,10,2.32c6.24,0,13.76-2.57,13.76-10,0-4.5-3.66-7.38-7.82-7.92v-.1c3.86-.94,6.68-3.71,6.68-7.87,0-4.9-4.31-8.56-11.63-8.56a20.09,20.09,0,0,0-10.4,2.67Zm-33.27-7.53,11.24,22.92a1.55,1.55,0,0,1,.1,1.54,4.86,4.86,0,0,1-4.5,3.12,10.21,10.21,0,0,1-2.48-.25l-.55,6a10.08,10.08,0,0,0,3.72.54,10.77,10.77,0,0,0,8.86-4.4c2.47-3.07,4.55-8.12,6.59-13.32l6.23-16.19h-7.92l-3.62,11.64c-.83,2.82-1.38,5-1.83,6.48h-.15c-.74-2-1.43-4-2.32-6.39l-4.86-11.73Zm-27.58,0v33.37h7.48V409h1.44c4.05,0,5.59,2.87,6.73,6.63a50.8,50.8,0,0,0,2.57,7.33h8.12a92.31,92.31,0,0,1-3.86-10.5c-1.39-4-3.32-7-7.62-8.07l11.63-14.8h-9.16l-9.21,13.86h-.64V389.56Z" transform="translate(-107.77 -72.57)"/><polygon class="cls-3" points="313.17 80 320.34 102.2 343.67 102.16 324.77 115.83 332.02 138 313.17 124.25 294.33 138 301.58 115.83 282.68 102.16 306.01 102.2 313.17 80"/></svg>