<svg xmlns="http://www.w3.org/2000/svg" width="56" height="56" viewBox="0 0 56 56">
    <g fill="none" fill-rule="evenodd">
        <path stroke="#181818" d="M32.526 8.5v1.131c0 .415-.694.869-1 .869h-6.932c-.304 0-1.068-.454-1.068-.869V8.5h9zm1.449 36H22.037h11.938zm-14.407-36h17.02c1.694 0 2.938 1.346 2.938 3.039v32.642c0 1.695-1.244 3.319-2.938 3.319H19.6c-1.693 0-3.1-1.624-3.1-3.319V11.539c0-1.693 1.374-3.039 3.067-3.039z"/>
        <path fill="#181818" d="M32.026 26.25a3.75 3.75 0 1 0-7.499.001 3.75 3.75 0 0 0 7.499-.001M28.374 19a7.101 7.101 0 0 1 7.1 7.103c0 5.589-7.1 9.897-7.1 9.897s-7.101-4.308-7.101-9.897a7.101 7.101 0 0 1 7.1-7.103"/>
    </g>
</svg>
