<?xml version="1.0" encoding="UTF-8"?>
<svg width="126px" height="58px" viewBox="0 0 126 58" version="1.1" xmlns="http://www.w3.org/2000/svg" xmlns:xlink="http://www.w3.org/1999/xlink">
    <!-- Generator: Sketch 57.1 (83088) - https://sketch.com -->
    <title>Group 17</title>
    <desc>Created with Sketch.</desc>
    <defs>
        <rect id="path-1" x="0.5" y="0.438769217" width="9" height="14"></rect>
    </defs>
    <g id="Page-1" stroke="none" stroke-width="1" fill="none" fill-rule="evenodd">
        <g id="Ajax-Introduction-Desktop" transform="translate(-1489.000000, -9158.000000)">
            <g id="App" transform="translate(0.000000, 8863.000000)">
                <g id="Content" transform="translate(208.000000, 1.000000)">
                    <g id="Group-17" transform="translate(1281.000000, 294.000000)">
                        <text id="4,3" font-family="Roboto-Medium, Roboto Medium" font-size="20" font-weight="normal" letter-spacing="0.769230769" fill="#303030">
                            <tspan x="0.281700721" y="54">4,3</tspan>
                        </text>
                        <g id="Group">
                            <g id="Google-play-stars" transform="translate(38.000000, 42.561231)">
                                <polygon id="Star-Copy-3" fill="#F5CA1B" points="7 10.5 2.88550323 12.663119 3.67130219 8.08155948 0.342604386 4.83688104 4.94275162 4.16844052 7 0 9.05724838 4.16844052 13.6573956 4.83688104 10.3286978 8.08155948 11.1144968 12.663119"></polygon>
                                <polygon id="Star-Copy-4" fill="#F5CA1B" points="24.5 10.5 20.6793959 12.663119 21.4090663 8.08155948 18.3181326 4.83688104 22.5896979 4.16844052 24.5 0 26.4103021 4.16844052 30.6818674 4.83688104 27.5909337 8.08155948 28.3206041 12.663119"></polygon>
                                <polygon id="Star-Copy-5" fill="#F5CA1B" points="42 10.5 37.8855032 12.663119 38.6713022 8.08155948 35.3426044 4.83688104 39.9427516 4.16844052 42 0 44.0572484 4.16844052 48.6573956 4.83688104 45.3286978 8.08155948 46.1144968 12.663119"></polygon>
                                <polygon id="Star-Copy-6" fill="#F5CA1B" points="60.5 10.5 56.0916106 12.663119 56.9335381 8.08155948 53.3670761 4.83688104 58.2958053 4.16844052 60.5 0 62.7041947 4.16844052 67.6329239 4.83688104 64.0664619 8.08155948 64.9083894 12.663119"></polygon>
                                <g id="Star-Copy-8" transform="translate(70.000000, 0.000000)">
                                    <mask id="mask-2" fill="white">
                                        <use xlink:href="#path-1"></use>
                                    </mask>
                                    <g id="Mask"></g>
                                    <polygon id="Star-Copy-7" fill="#F5CA1B" mask="url(#mask-2)" points="10 11.4387692 4.67074705 13.9109052 5.68854379 8.67483719 1.37708759 4.96663326 7.33537352 4.20270124 10 -0.561230783 12.6646265 4.20270124 18.6229124 4.96663326 14.3114562 8.67483719 15.329253 13.9109052"></polygon>
                                </g>
                                <g id="Star-Copy-7" transform="translate(72.000000, 0.000000)" stroke="#F5CA1B">
                                    <polygon points="8 10.9387692 3.59161061 13.1018882 4.43353806 8.5203287 0.867076128 5.27565026 5.7958053 4.60720974 8 0.438769217 10.2041947 4.60720974 15.1329239 5.27565026 11.5664619 8.5203287 12.4083894 13.1018882"></polygon>
                                </g>
                            </g>
                            <g id="-googleplay_blank-Copy" fill="#303030">
                                <path d="M12.978768,13.698274 L16.862179,17.5816849 L2.5548756,25.6550918 C1.94170546,25.9616769 1.43073034,26.0638719 1.02195024,25.9616769 L1.02195024,25.9616769 L12.978768,13.698274 Z M0.204390048,0.719505942 L12.2634029,12.9829088 L0.306585072,25.3485067 C0.12774378,25.0802448 0.0271455532,24.8119828 0.00479039175,24.4067955 L0,24.2243615 L0,1.84365121 C0,1.33267609 0.102195024,1.02609101 0.204390048,0.719505942 Z M17.7819342,8.79291284 L22.5851003,11.5521785 C23.9647331,12.3405401 24.0140057,13.6040304 22.7329181,14.3346978 L22.5851003,14.4136392 L17.8841292,17.0707098 L13.7963282,12.8807138 L17.7819342,8.79291284 Z M2.40158306,0.224984221 L2.5548756,0.310725846 L16.7599839,8.38413274 L12.978768,12.2675437 L1.02195024,0.106335798 C1.48182785,-0.0776152449 1.94170546,-0.0132323798 2.40158306,0.224984221 Z" id="Combined-Shape" fill-rule="nonzero"></path>
                                <path d="M42.40625,15.1123047 C42.0976547,15.5146504 41.6699246,15.8193349 41.1230469,16.0263672 C40.5761691,16.2333995 39.9550816,16.3369141 39.2597656,16.3369141 C38.5449183,16.3369141 37.9121121,16.1748063 37.3613281,15.8505859 C36.8105441,15.5263656 36.3857437,15.062503 36.0869141,14.4589844 C35.7880844,13.8554657 35.6328126,13.1513712 35.6210938,12.3466797 L35.6210938,11.6787109 C35.6210938,10.389642 35.9296844,9.38281612 36.546875,8.65820312 C37.1640656,7.93359013 38.0253851,7.57128906 39.1308594,7.57128906 C40.0800829,7.57128906 40.8339816,7.80566172 41.3925781,8.27441406 C41.9511747,8.74316641 42.2871088,9.4189409 42.4003906,10.3017578 L40.9472656,10.3017578 C40.7832023,9.27440893 40.1875051,8.76074219 39.1601562,8.76074219 C38.4960904,8.76074219 37.9912127,8.99999761 37.6455078,9.47851562 C37.299803,9.95703364 37.1210938,10.6591751 37.109375,11.5849609 L37.109375,12.2412109 C37.109375,13.1630905 37.303709,13.8789037 37.6923828,14.3886719 C38.0810566,14.89844 38.6210938,15.1533203 39.3125,15.1533203 C40.0703163,15.1533203 40.6093734,14.981447 40.9296875,14.6376953 L40.9296875,12.9677734 L39.171875,12.9677734 L39.171875,11.8427734 L42.40625,11.8427734 L42.40625,15.1123047 Z M44.0308594,12.9912109 C44.0308594,12.3701141 44.1539051,11.8105494 44.4,11.3125 C44.646095,10.8144506 44.9917947,10.431642 45.4371094,10.1640625 C45.8824241,9.89648304 46.3941378,9.76269531 46.9722657,9.76269531 C47.8277387,9.76269531 48.5220677,10.0380832 49.0552735,10.5888672 C49.5884793,11.1396512 49.8765623,11.8701126 49.9195313,12.7802734 L49.9253907,13.1142578 C49.9253907,13.7392609 49.8052747,14.2978491 49.5650391,14.7900391 C49.3248035,15.282229 48.981057,15.6630846 48.5337891,15.9326172 C48.0865212,16.2021498 47.5699248,16.3369141 46.9839844,16.3369141 C46.0894487,16.3369141 45.3736355,16.0390655 44.8365235,15.4433594 C44.2994114,14.8476533 44.0308594,14.0537159 44.0308594,13.0615234 L44.0308594,12.9912109 Z M45.4546875,13.1142578 C45.4546875,13.7666048 45.5894518,14.2773419 45.8589844,14.6464844 C46.128517,15.0156268 46.5035133,15.2001953 46.9839844,15.2001953 C47.4644556,15.2001953 47.8384753,15.0126972 48.1060547,14.6376953 C48.3736342,14.2626934 48.5074219,13.7138708 48.5074219,12.9912109 C48.5074219,12.3505827 48.369728,11.8427753 48.094336,11.4677734 C47.818944,11.0927716 47.4449243,10.9052734 46.9722657,10.9052734 C46.5074196,10.9052734 46.1382827,11.0898419 45.8648438,11.4589844 C45.5914049,11.8281268 45.4546875,12.3798791 45.4546875,13.1142578 Z M51.2628907,12.9912109 C51.2628907,12.3701141 51.3859363,11.8105494 51.6320313,11.3125 C51.8781263,10.8144506 52.223826,10.431642 52.6691407,10.1640625 C53.1144554,9.89648304 53.6261691,9.76269531 54.2042969,9.76269531 C55.05977,9.76269531 55.754099,10.0380832 56.2873048,10.5888672 C56.8205106,11.1396512 57.1085936,11.8701126 57.1515626,12.7802734 L57.1574219,13.1142578 C57.1574219,13.7392609 57.037306,14.2978491 56.7970704,14.7900391 C56.5568348,15.282229 56.2130882,15.6630846 55.7658204,15.9326172 C55.3185525,16.2021498 54.8019561,16.3369141 54.2160157,16.3369141 C53.32148,16.3369141 52.6056668,16.0390655 52.0685548,15.4433594 C51.5314427,14.8476533 51.2628907,14.0537159 51.2628907,13.0615234 L51.2628907,12.9912109 Z M52.6867188,13.1142578 C52.6867188,13.7666048 52.8214831,14.2773419 53.0910157,14.6464844 C53.3605483,15.0156268 53.7355445,15.2001953 54.2160157,15.2001953 C54.6964868,15.2001953 55.0705065,15.0126972 55.338086,14.6376953 C55.6056655,14.2626934 55.7394532,13.7138708 55.7394532,12.9912109 C55.7394532,12.3505827 55.6017593,11.8427753 55.3263673,11.4677734 C55.0509753,11.0927716 54.6769556,10.9052734 54.2042969,10.9052734 C53.7394509,10.9052734 53.3703139,11.0898419 53.0968751,11.4589844 C52.8234362,11.8281268 52.6867188,12.3798791 52.6867188,13.1142578 Z M58.5125001,13.0029297 C58.5125001,12.0185498 58.7439431,11.2324248 59.206836,10.6445312 C59.669729,10.0566377 60.2839807,9.76269531 61.0496095,9.76269531 C61.7722693,9.76269531 62.340623,10.0146459 62.7546876,10.5185547 L62.8191407,9.87988281 L64.1023439,9.87988281 L64.1023439,16.0263672 C64.1023439,16.8584026 63.8435574,17.514646 63.3259767,17.9951172 C62.808396,18.4755883 62.1101608,18.7158203 61.2312501,18.7158203 C60.766404,18.7158203 60.312307,18.6191416 59.8689454,18.4257812 C59.4255838,18.2324209 59.0886731,17.9794938 58.8582032,17.6669922 L59.5320314,16.8115234 C59.9695335,17.3310573 60.5085907,17.5908203 61.1492189,17.5908203 C61.6218775,17.5908203 61.9949206,17.4628919 62.2683595,17.2070312 C62.5417983,16.9511706 62.6785157,16.5751978 62.6785157,16.0791016 L62.6785157,15.6513672 C62.2683574,16.1084007 61.7214879,16.3369141 61.0378907,16.3369141 C60.2956995,16.3369141 59.6892603,16.0419951 59.2185548,15.4521484 C58.7478493,14.8623017 58.5125001,14.0459037 58.5125001,13.0029297 Z M59.9304689,13.1259766 C59.9304689,13.7626985 60.0603504,14.26367 60.3201173,14.6289062 C60.5798842,14.9941425 60.9402322,15.1767578 61.401172,15.1767578 C61.9753936,15.1767578 62.4011706,14.9306665 62.6785157,14.4384766 L62.6785157,11.6494141 C62.4089831,11.1689429 61.9871124,10.9287109 61.4128907,10.9287109 C60.9441384,10.9287109 60.5798842,11.114256 60.3201173,11.4853516 C60.0603504,11.8564472 59.9304689,12.4033167 59.9304689,13.1259766 Z M67.4789064,16.2197266 L66.0550783,16.2197266 L66.0550783,7.21972656 L67.4789064,7.21972656 L67.4789064,16.2197266 Z M72.2207033,16.3369141 C71.318355,16.3369141 70.586917,16.0527372 70.0263674,15.484375 C69.4658177,14.9160128 69.1855471,14.1591844 69.1855471,13.2138672 L69.1855471,13.0380859 C69.1855471,12.4052703 69.3076161,11.8398462 69.551758,11.3417969 C69.7958998,10.8437475 70.1386698,10.4560561 70.5800783,10.1787109 C71.0214868,9.9013658 71.5136693,9.76269531 72.0566408,9.76269531 C72.9199264,9.76269531 73.5869119,10.0380832 74.0576174,10.5888672 C74.5283228,11.1396512 74.7636721,11.9189403 74.7636721,12.9267578 L74.7636721,13.5009766 L70.6210939,13.5009766 C70.6640629,14.0244167 70.8388658,14.438475 71.145508,14.7431641 C71.4521501,15.0478531 71.8378885,15.2001953 72.3027346,15.2001953 C72.9550816,15.2001953 73.4863263,14.9365261 73.8964846,14.4091797 L74.6640627,15.1416016 C74.4101552,15.5205097 74.0712914,15.8144521 73.6474611,16.0234375 C73.2236309,16.2324229 72.7480497,16.3369141 72.2207033,16.3369141 Z M72.0507814,10.9052734 C71.6601545,10.9052734 71.3447279,11.0419908 71.1044924,11.3154297 C70.8642568,11.5888686 70.710938,11.9697241 70.6445314,12.4580078 L73.3574221,12.4580078 L73.3574221,12.3525391 C73.3261719,11.8759742 73.19922,11.5156262 72.9765627,11.2714844 C72.7539053,11.0273425 72.4453147,10.9052734 72.0507814,10.9052734 Z M81.2765628,13.0498047 L81.2765628,16.2197266 L79.7941409,16.2197266 L79.7941409,7.68847656 L83.0578128,7.68847656 C84.0109425,7.68847656 84.7677709,7.93652096 85.3283206,8.43261719 C85.8888702,8.92871342 86.1691409,9.58495686 86.1691409,10.4013672 C86.1691409,11.2373089 85.8947296,11.887693 85.3458987,12.3525391 C84.7970678,12.8173851 84.0285208,13.0498047 83.0402346,13.0498047 L81.2765628,13.0498047 Z M81.2765628,11.8603516 L83.0578128,11.8603516 C83.5851591,11.8603516 83.9874989,11.7363294 84.264844,11.4882812 C84.5421891,11.2402331 84.6808596,10.8818383 84.6808596,10.4130859 C84.6808596,9.95214613 84.540236,9.58398575 84.2589846,9.30859375 C83.9777332,9.03320175 83.5910183,8.8916016 83.0988284,8.88378906 L81.2765628,8.88378906 L81.2765628,11.8603516 Z M89.2410159,16.2197266 L87.8171878,16.2197266 L87.8171878,7.21972656 L89.2410159,7.21972656 L89.2410159,16.2197266 Z M94.9789066,16.2197266 C94.9164063,16.0986322 94.8617193,15.9013686 94.8148441,15.6279297 C94.3617168,16.1005883 93.8070349,16.3369141 93.1507816,16.3369141 C92.5140596,16.3369141 91.9945336,16.1552753 91.5921878,15.7919922 C91.1898421,15.4287091 90.9886722,14.9794949 90.9886722,14.4443359 C90.9886722,13.7685513 91.2396462,13.2500018 91.7416019,12.8886719 C92.2435575,12.5273419 92.9613238,12.3466797 93.8949222,12.3466797 L94.7679691,12.3466797 L94.7679691,11.9306641 C94.7679691,11.6025374 94.6761731,11.3398447 94.4925784,11.1425781 C94.3089838,10.9453115 94.0296897,10.8466797 93.6546878,10.8466797 C93.3304675,10.8466797 93.0648451,10.9277336 92.8578128,11.0898438 C92.6507805,11.2519539 92.5472659,11.4580066 92.5472659,11.7080078 L91.1234378,11.7080078 C91.1234378,11.3603498 91.238671,11.0351578 91.4691409,10.7324219 C91.6996108,10.429686 92.0130843,10.1923837 92.4095706,10.0205078 C92.806057,9.84863195 93.2484354,9.76269531 93.7367191,9.76269531 C94.4789103,9.76269531 95.0707012,9.94921688 95.5121097,10.3222656 C95.9535182,10.6953144 96.1800784,11.2197232 96.1917972,11.8955078 L96.1917972,14.7548828 C96.1917972,15.3251982 96.2718745,15.7802717 96.4320316,16.1201172 L96.4320316,16.2197266 L94.9789066,16.2197266 Z M93.4144534,15.1943359 C93.6957049,15.1943359 93.9603506,15.1259772 94.2083988,14.9892578 C94.4564469,14.8525384 94.6429684,14.6689465 94.7679691,14.4384766 L94.7679691,13.2431641 L94.0003909,13.2431641 C93.4730446,13.2431641 93.0765641,13.33496 92.8109378,13.5185547 C92.5453115,13.7021494 92.4125003,13.9619124 92.4125003,14.2978516 C92.4125003,14.5712904 92.5033197,14.7890617 92.6849613,14.9511719 C92.8666028,15.1132821 93.1097644,15.1943359 93.4144534,15.1943359 Z M100.212891,14.1806641 L101.501953,9.87988281 L103.019532,9.87988281 L100.5,17.1806641 C100.11328,18.2470756 99.4570362,18.7802734 98.5312504,18.7802734 C98.3242181,18.7802734 98.0957047,18.7451175 97.8457035,18.6748047 L97.8457035,17.5732422 L98.1152347,17.5908203 C98.4746115,17.5908203 98.7451166,17.5253913 98.9267582,17.3945312 C99.1083997,17.2636712 99.251953,17.0439469 99.3574222,16.7353516 L99.5625004,16.1904297 L97.3359379,9.87988281 L98.8710941,9.87988281 L100.212891,14.1806641 Z" id="Google-Play"></path>
                            </g>
                        </g>
                    </g>
                </g>
            </g>
        </g>
    </g>
</svg>