<svg viewBox="0 0 56 56" xmlns="http://www.w3.org/2000/svg"><g fill-rule="nonzero" fill="none"><path d="M28 56C12.536 56 0 43.464 0 28S12.536 0 28 0s28 12.536 28 28a28 28 0 0 1-28 28" fill="#5E5E5E"/><path d="M53.375 28c0 14.014-11.36 25.375-25.375 25.375-14.014 0-25.375-11.36-25.375-25.375C2.625 13.986 13.985 2.625 28 2.625A25.375 25.375 0 0 1 53.375 28h.875C54.25 13.503 42.497 1.75 28 1.75S1.75 13.503 1.75 28 13.503 54.25 28 54.25 54.25 42.497 54.25 28h-.875z" fill="#FFF"/><path d="M33.171 23.739H22.83c.201-3.404 2.38-4.752 4.935-6.431 1.75-1.164 3.902-2.494 3.902-4.892 0-1.951-1.391-3.229-3.5-3.229-2.712 0-3.587 1.978-3.587 4.306h-1.365v-.202c0-3.316 1.907-5.337 5.04-5.337 2.94 0 4.847 1.75 4.847 4.445 0 3.115-2.782 4.795-5.092 6.274-1.497.962-3.273 2.02-3.588 3.832h8.75v1.234zm-17.666 8.006h2.572v3.5a7.578 7.578 0 0 1-1.207.297c-.418.055-.839.08-1.26.08a3.159 3.159 0 0 1-2.485-.92 3.789 3.789 0 0 1-.875-2.624 3.5 3.5 0 0 1 .98-2.626 3.649 3.649 0 0 1 2.678-.953 5.25 5.25 0 0 1 2.117.376l-.402.954a4.042 4.042 0 0 0-1.707-.394 2.292 2.292 0 0 0-1.75.709 2.704 2.704 0 0 0-.656 1.925 2.861 2.861 0 0 0 .595 1.951 2.117 2.117 0 0 0 1.689.674c.4-.007.799-.054 1.19-.14v-1.829h-1.479v-.98zm5.408.997v2.81h-1.147v-7h1.978a3.299 3.299 0 0 1 2.012.507c.46.383.703.97.648 1.566a1.908 1.908 0 0 1-1.357 1.864l1.978 3.106h-1.304l-1.68-2.809-1.128-.044zm0-.944h.796a1.75 1.75 0 0 0 1.155-.298c.252-.218.388-.542.367-.875a.936.936 0 0 0-.394-.875c-.354-.2-.758-.29-1.163-.262h-.761v2.31zm9.476 3.753l-.7-1.951H27.01l-.682 1.951h-1.216l2.625-7.044h1.25l2.626 7.044h-1.225zm-.998-2.94l-.656-1.907c-.052-.131-.114-.333-.201-.604-.088-.271-.14-.481-.175-.604-.093.436-.213.866-.359 1.287l-.639 1.828h2.03zm8.846-.638a3.5 3.5 0 0 1-.962 2.624 3.859 3.859 0 0 1-2.774.92h-1.968v-7h2.17c.956-.069 1.9.246 2.624.874.654.694.985 1.631.91 2.582zm-1.207.043c0-1.68-.788-2.52-2.354-2.52h-.997v5.084h.822c1.689 0 2.529-.858 2.529-2.564zm6.685 3.5h-3.973v-7h4.008v.972h-2.861v1.925h2.625v.962h-2.625v2.196h2.861l-.035.945zm-27.86 4.857h2.336v.752h-1.33v1.601h1.05v.718h-1.05v1.846h1.348v.7h-2.354v-5.617zm2.949 0h.709l1.356 3.184v-3.184h.875v5.582H21l-1.365-3.334v3.334h-.875l.044-5.582zm5.679 5.25a2.152 2.152 0 0 1-.307-1.26h.937c-.01.242.023.485.096.717a.402.402 0 0 0 .411.245.42.42 0 0 0 .341-.149.945.945 0 0 0 .14-.402v-.7a2.336 2.336 0 0 0-.105-.814.402.402 0 0 0-.42-.262.455.455 0 0 0-.332.13.744.744 0 0 0-.193.36h-.822l.052-3.107h2.512v.875h-1.68l-.062 1.339a.814.814 0 0 1 .341-.21c.155-.054.318-.08.482-.079a.971.971 0 0 1 .875.455c.206.39.303.829.28 1.269.01.366-.031.73-.123 1.085-.067.272-.22.514-.437.691a1.356 1.356 0 0 1-.875.263 1.295 1.295 0 0 1-1.094-.455l-.017.009zm3.5 0a1.75 1.75 0 0 1-.377-1.182v-2.494A1.75 1.75 0 0 1 28 40.75a1.321 1.321 0 0 1 1.102-.438c.41-.028.81.133 1.085.438.256.345.383.77.36 1.198v2.468a1.75 1.75 0 0 1-.377 1.181 1.304 1.304 0 0 1-1.068.438A1.33 1.33 0 0 1 28 45.596l-.017.027zm1.575-1.19V42a1.627 1.627 0 0 0-.097-.595.446.446 0 0 0-.778 0c-.074.19-.107.392-.097.595v2.45c0 .542.158.814.49.814.333 0 .482-.315.482-.858v.026zm2.756-2.984a2.625 2.625 0 0 1-.508.166l-.358.105v-.709c.207-.071.41-.16.603-.262.181-.086.344-.204.481-.35h.718v5.582h-.936V41.45zm2.266 3.019v-.193h.954v.166c-.011.213.028.426.114.621a.42.42 0 0 0 .402.202.402.402 0 0 0 .394-.21c.081-.212.117-.439.105-.665a1.33 1.33 0 0 0-.149-.692.595.595 0 0 0-.508-.253h-.157v-.762h.14a.665.665 0 0 0 .525-.2c.114-.193.166-.416.149-.64a1.068 1.068 0 0 0-.114-.56.429.429 0 0 0-.403-.183.394.394 0 0 0-.384.192c-.088.186-.127.39-.114.595v.201h-.954v-.262a1.488 1.488 0 0 1 .42-1.129c.287-.277.678-.42 1.076-.393.4-.027.792.112 1.085.385.268.298.404.693.377 1.093.01.282-.06.561-.202.805-.12.2-.31.35-.533.42.228.079.42.237.542.447.139.27.205.571.193.874.028.442-.096.88-.35 1.243-.276.315-.686.48-1.103.446-1.015.018-1.505-.516-1.505-1.575v.026zm4.611-3.02c-.159.075-.326.131-.498.167l-.368.105v-.709c.208-.071.41-.16.604-.262.182-.083.346-.202.481-.35h.735v5.582h-.954V41.45z" fill="#FFF"/></g></svg>