<svg viewBox="0 0 164 49" xmlns="http://www.w3.org/2000/svg"><path d="M57.223 9.25c.057.063.728.647 2.015 1.753.422.338.804.724 1.137 1.15.304.439.466.96.463 1.494a2.524 2.524 0 0 1-1.042 2.084c-.664.513-1.51.774-2.516.774a5.643 5.643 0 0 1-1.896-.316 3.628 3.628 0 0 1-1.296-.717l-.041-.04.843-1.224.06.036c.297.183.54.32.721.409.555.275 1.014.415 1.365.415a1.68 1.68 0 0 0 1.09-.332c.276-.225.427-.568.408-.923a1.71 1.71 0 0 0-.436-1.085 5.643 5.643 0 0 0-.83-.756l-.83-.663c-.421-.332-.715-.573-.881-.739a3.085 3.085 0 0 1-.639-.83 2.323 2.323 0 0 1 .707-2.929c.629-.466 1.429-.702 2.377-.702.58.004 1.154.117 1.692.332.375.134.725.329 1.036.577l.05.044-.898 1.15-.058-.04a4.426 4.426 0 0 0-.468-.299 2.461 2.461 0 0 0-1.129-.294 1.618 1.618 0 0 0-.97.264.838.838 0 0 0-.366.722c.02.263.138.508.332.686zm10.436 2.473H64.38v3.102h3.842v1.464h-5.981V6.225h5.548V7.69H64.38v2.57h3.278v1.464zm7.56-4.077c-1.098 0-1.972.38-2.596 1.142-.578.692-.87 1.571-.87 2.617 0 1.045.277 1.895.83 2.524.619.705 1.533 1.062 2.72 1.062a4.13 4.13 0 0 0 1.228-.199 3.52 3.52 0 0 0 .875-.387l.07-.046.653 1.328-.056.033c-.444.264-.921.468-1.42.606a6.51 6.51 0 0 1-1.558.165 5.882 5.882 0 0 1-3.983-1.442 4.813 4.813 0 0 1-1.716-3.767 4.813 4.813 0 0 1 1.589-3.668 5.485 5.485 0 0 1 3.853-1.473 7.389 7.389 0 0 1 1.919.239 5.729 5.729 0 0 1 1.53.624l.06.036-.807 1.276-.063-.043a3.437 3.437 0 0 0-.916-.403 4.577 4.577 0 0 0-1.341-.224zm10.649 4.934V6.225h1.967V12.1c0 1.273-.294 2.299-.873 3.049-.7.896-1.766 1.35-3.19 1.35-1.346 0-2.392-.3-3.117-.897-.725-.598-1.092-1.43-1.092-2.475V6.225h2.14v6.347c0 .942.19 1.604.569 1.971.302.294.786.443 1.44.443a2.011 2.011 0 0 0 1.52-.68c.429-.47.657-1.09.636-1.726zm9.88-1.676c-.385.507-.8.823-1.227.939l2.423 4.283-2.245.362-2.06-4.233h-1.162v4.034h-2.139V6.225h3.542c1.042 0 1.882.242 2.51.735.626.493.945 1.187.945 2.065a3.017 3.017 0 0 1-.587 1.879zm-4.27-3.233v3.254h.939c.464.013.916-.15 1.264-.456.344-.313.531-.761.512-1.225 0-.61-.166-1.04-.498-1.283-.263-.192-.68-.29-1.24-.29h-.978zm6.396-1.446h2.139V16.29h-2.14V6.225zm6.311 1.464h-2.992V6.225h8.099l-.01 1.464h-2.958v8.6h-2.139v-8.6zm7.679-1.625l2.028 4.483 2.496-4.436 2.254.272-.065.094-3.908 5.77v4.042h-2.14v-4.048l-2.905-5.833 2.24-.344zm21.14 3.034l-.554 1.124H131c.1.213.181.435.243.663.057.249.084.504.08.759a5.06 5.06 0 0 1-.11 1.148 3.777 3.777 0 0 1-.425.983l2.148 1.742-1.577.96-1.563-1.366a3.79 3.79 0 0 1-1.162.846 4.863 4.863 0 0 1-2.192.498 4.036 4.036 0 0 1-2.616-.875 2.841 2.841 0 0 1-1.118-2.277 2.717 2.717 0 0 1 .622-1.719 3.651 3.651 0 0 1 1.328-1.072 3.045 3.045 0 0 1-.624-.734c-.34-.51-.506-.985-.506-1.419 0-.653.313-1.216.932-1.65a3.372 3.372 0 0 1 1.969-.593c.427.002.85.075 1.254.215.321.1.622.255.89.458l.046.037-.645 1.15-.065-.036a3.606 3.606 0 0 0-.408-.206 2.26 2.26 0 0 0-.873-.214 1.15 1.15 0 0 0-.783.235.996.996 0 0 0-.332.648.4.4 0 0 0-.009.09c.02.253.118.492.282.685.198.249.42.477.664.68l3.218 2.916c.014-.022.025-.045.038-.068.093-.248.137-.51.13-.775a2.923 2.923 0 0 0-.148-.954 2.687 2.687 0 0 0-.405-.754h-1.409l.564-1.125h4.566zm-7.724 5.389c.407.373.942.575 1.494.564.393.001.782-.079 1.142-.236.31-.128.587-.328.808-.582l-3.022-2.745a1.948 1.948 0 0 0-.664.596 1.728 1.728 0 0 0-.377 1.027 1.814 1.814 0 0 0 .62 1.376zm14.445 1.802h-2.096V6.225h5.61V7.69h-3.514v2.967h3.34v1.497h-3.34v4.136zm5.104-10.064h2.139V16.29h-2.14V6.225zm10.344 4.679c-.392.507-.805.823-1.233.939l2.423 4.283-2.244.362-2.06-4.233h-1.161v4.034h-2.141V6.225h3.548c1.04 0 1.879.242 2.508.735s.946 1.187.946 2.065a3.025 3.025 0 0 1-.586 1.879zm-4.275-3.233l-.002 3.254h.943c.464.013.916-.15 1.265-.456.343-.313.53-.761.509-1.225 0-.61-.166-1.04-.498-1.283-.264-.192-.68-.29-1.241-.29h-.976zm8.734 4.052v3.102h3.842v1.464h-5.98V6.225h5.547V7.69h-3.409v2.57h3.278v1.464h-3.278zM60.275 24.547h-3.28v3.112h3.843v1.465h-5.981v-10.09h5.548v1.467h-3.41v2.58h3.28v1.466zm7.98-5.613l2.01.241-2.976 4.348 3.477 5.479-2.3.288-2.435-4.059-2.488 4.063-1.95-.349 3.434-5.238-2.765-4.497 2.248-.309 1.804 3.208 1.94-3.175zm8.787 1.526c-1.1 0-1.973.38-2.599 1.121-.576.694-.868 1.579-.868 2.626s.277 1.899.83 2.53c.62.706 1.534 1.065 2.72 1.065.417-.004.83-.071 1.227-.2.308-.088.603-.218.876-.388l.07-.045.653 1.34-.056.031c-.444.266-.922.47-1.42.608a6.497 6.497 0 0 1-1.557.166 5.875 5.875 0 0 1-3.983-1.444 5.035 5.035 0 0 1-.128-7.457 5.477 5.477 0 0 1 3.853-1.472 7.468 7.468 0 0 1 1.919.247 5.794 5.794 0 0 1 1.528.626l.06.038-.805 1.28-.063-.043a3.372 3.372 0 0 0-.918-.405 4.514 4.514 0 0 0-1.339-.224zm9.568 4.087h-3.28v3.112h3.842v1.465h-5.98v-10.09h5.547v1.467H83.33v2.58h3.28v1.466zm1.85-5.513h2.121v8.582h3.86v1.508h-5.999l.018-10.09zm7.234 0h2.121v8.582h3.86v1.508h-5.999l.018-10.09zm12.823 5.513h-3.28v3.112h3.85l-.159 1.465h-5.974l.146-10.09h5.546v1.467h-3.409v2.58h3.28v1.466zm3.91-5.513l5.252 6.886-.01-6.886h1.708l-.146 10.09h-1.479l-5.259-6.963-.141 6.963h-1.766l.146-10.09h1.695zm14.39 1.426c-1.099 0-1.973.38-2.596 1.126-.575.694-.868 1.579-.868 2.626s.278 1.899.83 2.53c.62.706 1.535 1.065 2.722 1.065a4.13 4.13 0 0 0 1.226-.2c.309-.087.603-.218.875-.388l.07-.045.654 1.34-.057.031c-.952.532-2.03.8-3.122.774a5.465 5.465 0 0 1-3.841-1.444 5.037 5.037 0 0 1-.127-7.457 5.477 5.477 0 0 1 3.852-1.477 7.468 7.468 0 0 1 1.92.247 5.794 5.794 0 0 1 1.529.626l.06.038-.807 1.28-.063-.043a3.38 3.38 0 0 0-.916-.405 4.516 4.516 0 0 0-1.341-.224zm6.579 4.087v3.112h3.85l-.16 1.465h-5.976l.146-10.09h5.549v1.467h-3.41v2.58h3.278v1.466h-3.277zm-75.174 7.614l1.94.002 3.798 10.09h-2.822l-.92-2.666H56.99l-1.148 2.665h-2.365l4.746-10.09zm1.444 5.721l-.855-2.645-1.105 2.645h1.96zm14.706.873l2.054-6.721 2.304.355-3.376 9.863h-2.303l-1.887-6.192-2.188 6.195-2.381-.003-2.745-9.936 2.589-.297 1.703 6.748 2.323-6.607h1.993l1.914 6.595zm7.762-6.594l1.94.002 3.797 10.09H85.05l-.92-2.666H80.9l-1.148 2.665h-2.365l4.747-10.09zm1.444 5.721l-.855-2.645-1.105 2.645h1.96zm12.961-2.816a3.02 3.02 0 0 1-.632 1.932 2.863 2.863 0 0 1-1.085.887l2.452 4.158-2.746.425-2.073-4.086h-.773v3.863h-2.61v-10.09h3.778c1.095 0 1.991.255 2.655.753a2.55 2.55 0 0 1 1.034 2.158zm-4.857-1.08v2.691h.708c.404.013.798-.126 1.105-.388.294-.253.454-.627.435-1.014 0-.511-.137-.866-.406-1.056-.223-.156-.593-.234-1.099-.234h-.743zm14.734-.593c1.072.856 1.624 2.08 1.62 3.636 0 1.724-.616 3.069-1.825 3.995-1.063.815-2.462 1.228-4.159 1.228h-3.759v-10.09h3.897c1.78 0 3.202.413 4.226 1.23zm-4.126 7.018c.92 0 1.63-.277 2.17-.864.542-.588.817-1.424.817-2.506 0-1.082-.322-1.877-.956-2.362-.55-.416-1.344-.629-2.36-.629h-1.057v6.361h1.386zm10.716-6.515a1.436 1.436 0 0 0-.83.21.586.586 0 0 0-.274.527c.02.198.116.38.267.51.045.046.191.182.729.613l1.27 1.046c.431.34.82.73 1.161 1.161a2.645 2.645 0 0 1-.625 3.723c-.7.524-1.595.79-2.656.79a6.097 6.097 0 0 1-1.975-.317c-.629-.216-1.082-.456-1.382-.737l-.178-.166 1.079-1.502.252.15c.292.172.536.3.702.381.523.248.946.374 1.26.374.334.018.665-.078.938-.273a.851.851 0 0 0 .332-.718 1.38 1.38 0 0 0-.386-.905 5.477 5.477 0 0 0-.793-.69l-.83-.64c-.433-.326-.733-.557-.9-.723a3.178 3.178 0 0 1-.681-.85 2.289 2.289 0 0 1-.274-1.098c-.017-.8.38-1.553 1.049-1.991.67-.475 1.523-.717 2.52-.717.607.003 1.21.115 1.778.332.397.136.77.335 1.104.59l.214.176-1.17 1.437-.242-.165c-.143-.1-.291-.19-.445-.271a2.295 2.295 0 0 0-1.014-.257zM24.433 0C37.835 0 48.7 10.864 48.7 24.267A24.268 24.268 0 1 1 24.433 0zM11.879 27.247c0 8.583 6.958 15.54 15.534 15.54a15.539 15.539 0 0 0 15.548-15.54c0-8.582-6.958-15.54-15.541-15.54s-15.54 6.958-15.54 15.54zm18.84 13.866a11.138 11.138 0 0 0 5.8-1.614 14.273 14.273 0 1 1 5.116-7.1 11.206 11.206 0 1 0-10.916 8.714z" fill="#5E5E5E" fill-rule="nonzero"/></svg>