<svg xmlns="http://www.w3.org/2000/svg" width="56" height="56" viewBox="0 0 56 56">
    <g fill="none" fill-rule="evenodd">
        <path stroke="#fff" d="M42.5 29.972c0 11.314-14.319 16.035-14.5 16.035-.181 0-13.5-5.363-13.5-16.035V15.306l13.5-3.84 14.5 3.84v14.666zm-12-5.995v-1.263c0-1.275-.389-2.307-2-2.307h-1.01c-1.609 0-1.99 1.032-1.99 2.307v1.263m22.21-3.912a18.798 18.798 0 0 1 .058 16.34m5.373-19.88a27.038 27.038 0 0 1 .075 23.406M8.614 36.406a18.798 18.798 0 0 1-.06-16.34m-5.372 19.88a27.045 27.045 0 0 1-.075-23.405"/>
        <path fill="#fff" d="M24 25h8a1 1 0 0 1 1 1v6a1 1 0 0 1-1 1h-8a1 1 0 0 1-1-1v-6a1 1 0 0 1 1-1z"/>
    </g>
</svg>
