<svg xmlns="http://www.w3.org/2000/svg" width="56" height="56" viewBox="0 0 56 56">
    <g fill="none" fill-rule="evenodd">
        <path fill="#181818" d="M40 13.01v1.003l4.677 2.353V13.01z"/>
        <path stroke="#181818" d="M42.533 44.014v-4.01 4.01zm-6.282-6.604c-.95 0-1.723-.758-1.723-1.694V19.863c0-.936.772-1.696 1.723-1.696m6.322 17.308l-.073-.043V20.536l.048-.03h-4.56c-.81 0-1.468.568-1.468 1.38v11.957c0 .813.658 1.664 1.468 1.664h4.585v-.032zm0 0l1.927 1.132V47.52h-2.238c-7.599 0-13.758-4.903-13.758-12.5V16.232c0-3.927 3.181-6.734 7.108-6.734H44.5v9.798l-1.952 1.21h.025v14.968zM23.03 9.502h-1.416c-3.927 0-7.114 2.692-7.114 6.618v18.786c0 6.887 5.295 11.642 11.901 12.65m-11.9-11.578l-2.363-2.706a2.51 2.51 0 0 1-.638-1.646v-9.1c0-.783.388-1.524 1.035-2.02l1.965-1.5v16.972z"/>
    </g>
</svg>
