<svg xmlns="http://www.w3.org/2000/svg" width="56" height="56" viewBox="0 0 56 56">
    <g fill="none" fill-rule="evenodd">
        <path stroke="#fff" d="M45.531 30.742c0 14.369-17.638 20.357-17.638 20.357s-17.378-6.804-17.378-20.357V10.844l17.378-4.9 17.638 4.9v19.898zM17.828 18.348c.549.101 1.692-.424 1.692.96v2.365c0 .673-.017 1.178.655 1.178h3.217m13.504 3.674h-4.052 4.052zm-13.39 0H17.95h5.555zm13.525 8.69c-.63 0-1.546.085-1.546-.515v-3.298c0-.673-.109-1.774-.817-1.774h-2.18m-6.002-9.34h3.004v-1.197c0-.747-.846-1.307-1.502-1.307s-1.502.56-1.502 1.307v1.198zm11.507-3.632L16.849 36.8l21.144-20.144z"/>
        <path fill="#fff" d="M22.773 35.03l-.218-.347 10.459-9.948v7.718c0 2.797-2.491 5.042-5.54 5.042h-.037c-1.965 0-3.707-.94-4.664-2.465zm-.742-6.517v-8.41h9.032l-9.032 8.41z"/>
    </g>
</svg>
