<svg viewBox="0 0 176 52" xmlns="http://www.w3.org/2000/svg"><path d="M53.264 34.297l2.263 2.601 2.271-2.6h5.367v12.506h-5.54v-6.26l-2.09 2.419-2.098-2.42v6.26h-5.549V34.298h5.376zm11.34.525c.377.239.792.412 1.227.511.51.12 1.032.18 1.556.178a6.03 6.03 0 0 0 1.452-.173c.424-.1.826-.275 1.188-.516v11.982h-5.423V34.822zm5.792-2.883a1.669 1.669 0 0 1-.915 1.4 3.815 3.815 0 0 1-2.168.59 3.94 3.94 0 0 1-2.167-.59 1.669 1.669 0 0 1-.915-1.4c.033-.592.383-1.12.915-1.383a4.335 4.335 0 0 1 4.335 0c.535.258.886.79.915 1.383zm24.284 6.637a5.25 5.25 0 0 0-1.3-.967 2.818 2.818 0 0 0-1.28-.342 1.062 1.062 0 0 0-.667.195.616.616 0 0 0-.26.516.867.867 0 0 0 .377.74c.174.11.36.196.555.26.297.104.6.19.906.261.965.187 1.85.662 2.54 1.361.55.652.837 1.485.807 2.337a3.494 3.494 0 0 1-1.387 2.939 5.67 5.67 0 0 1-3.577 1.07 11.27 11.27 0 0 1-1.391-.09c-.49-.061-1.015-.148-1.57-.26a14.006 14.006 0 0 1-1.603-.434 17.399 17.399 0 0 1-1.496-.572l1.266-3.382a4.2 4.2 0 0 0 1.374 1.331 3.234 3.234 0 0 0 1.66.499c.284.015.565-.07.794-.239a.763.763 0 0 0 .299-.62.867.867 0 0 0-.364-.74 3.633 3.633 0 0 0-1.115-.49c-1.338-.382-2.258-.895-2.76-1.54a3.429 3.429 0 0 1-.76-2.167 3.247 3.247 0 0 1 1.4-2.792c.946-.667 2.272-.997 3.993-.997.891-.005 1.78.082 2.653.26.787.16 1.55.417 2.272.768l-1.366 3.095zm-14.756-4.131a3.858 3.858 0 0 1 2.345.784 4.968 4.968 0 0 1 1.652 2.168 8.375 8.375 0 0 1-.148 6.502 5.28 5.28 0 0 1-1.85 2.168 4.46 4.46 0 0 1-2.437.702 4.556 4.556 0 0 1-1.045-.126 5.345 5.345 0 0 1-1.096-.407v5.34h-5.337V34.54h5.358v.923a4.404 4.404 0 0 1 1.236-.767c.42-.168.87-.253 1.322-.251zm-2.58 7.612c.102.068.21.126.321.173.193.08.399.122.607.122a.919.919 0 0 0 .79-.408 1.82 1.82 0 0 0 .294-1.101c.002-.21-.023-.42-.074-.624a1.673 1.673 0 0 0-.225-.486.98.98 0 0 0-.347-.32.906.906 0 0 0-.433-.109c-.385.02-.733.235-.92.572l-.012 2.18zm75.447-15.55l-8.007-9.667v9.667h-4.04V.207h4.04v15.12l6.697-7.99h5.202l-7.43 8.48 8.987 10.69h-5.45zm-98.218.533c-2.397 0-4.422-.754-5.852-2.167a6.411 6.411 0 0 1-1.903-4.205h3.762a3.412 3.412 0 0 0 1.054 2.245c.763.638 1.647.91 2.96.91 2.58 0 4.002-.953 4.002-2.683 0-1.218-.763-2.067-2.033-2.28-.629-.095-1.3-.177-1.947-.255a32.053 32.053 0 0 1-3.19-.49 5.133 5.133 0 0 1-4.088-5.012 5.45 5.45 0 0 1 1.825-4.235c1.34-1.222 3.295-1.894 5.505-1.894 2.32 0 4.44.828 5.666 2.22a6.069 6.069 0 0 1 1.6 3.671h-3.837a2.93 2.93 0 0 0-.793-1.769c-.707-.65-1.64-1-2.6-.975a4.552 4.552 0 0 0-2.017.32 2.436 2.436 0 0 0-1.556 2.26c0 1.2.78 1.928 2.324 2.167l1.118.143c.902.121 1.504.195 2.848.433 3.035.503 4.894 2.54 4.894 5.31a5.779 5.779 0 0 1-1.547 4.132c-1.704 1.777-4.314 2.154-6.195 2.154zm17.916 0a7.699 7.699 0 0 1-5.709-2.336c-1.807-1.82-2.796-4.539-2.796-7.656s.928-5.852 2.601-7.664a7.643 7.643 0 0 1 5.774-2.41c2.84 0 5.202 1.244 6.611 3.502 1.188 1.873 1.66 3.867 1.578 6.676 0 0-.03.655-.035 1.106H68.107v.208a5.514 5.514 0 0 0 1.417 3.984 4.036 4.036 0 0 0 2.892 1.252c1.36 0 2.193-.29 2.87-1.005.428-.446.738-.991.901-1.587h3.902a8.028 8.028 0 0 1-1.5 3.26c-1.782 2.215-4.3 2.67-6.1 2.67zm-.147-16.737a3.932 3.932 0 0 0-3.277 1.591 5.15 5.15 0 0 0-1.006 3.139v.216h8.475v-.216a5.458 5.458 0 0 0-1.196-3.55 3.875 3.875 0 0 0-2.996-1.18zM90.865 26.92a8.115 8.115 0 0 1-6.285-2.995c-1.322-1.734-1.994-4.101-1.994-7.001 0-2.9.672-5.254 1.994-7.001a8.115 8.115 0 0 1 6.285-2.996 7.803 7.803 0 0 1 6.19 2.996 7.66 7.66 0 0 1 1.375 3.901h-3.975a4.088 4.088 0 0 0-.55-1.7 3.416 3.416 0 0 0-3.035-1.569 3.763 3.763 0 0 0-2.874 1.275c-1.153 1.326-1.3 3.32-1.3 5.094 0 1.773.155 3.732 1.3 5.054a3.797 3.797 0 0 0 2.878 1.3 3.412 3.412 0 0 0 3.035-1.564c.306-.52.494-1.1.55-1.7h3.993a7.673 7.673 0 0 1-1.375 3.902 7.803 7.803 0 0 1-6.212 3.004zm16.36.078c-3.78 0-6.22-2.657-6.22-6.771V7.416h4.04v11.76c0 2.645 1.123 3.928 3.43 3.928.925.02 1.815-.36 2.44-1.044.94-.915 1.417-2.45 1.417-4.535V7.416h4.045V26.49h-3.07l-.637-3.095-.312.667c-.84 1.808-2.809 2.935-5.132 2.935zm12.802-.49V7.433h3.659l.433 3.035.091-.265c.728-1.911 2.601-3.034 5.055-3.034.394.001.788.029 1.179.082v4.062a6.72 6.72 0 0 0-1.3-.143c-3.087 0-5.003 2.198-5.003 5.735v9.602h-4.114zM133.13 7.416h4.045v19.091h-4.045V7.416zm0-7.21h4.045v4.045h-4.045V.207zm31.685 26.791c-4.491 0-6.503-2.97-6.503-5.909 0-3.363 2.333-5.635 6.09-5.904l5.662-.433v-1.392c0-1.534-.381-3.29-3.355-3.29-2.133 0-3.403.984-3.59 2.779h-3.9c.311-3.767 3.034-5.922 7.49-5.922 3.56 0 5.84 1.3 6.771 3.84a11.24 11.24 0 0 1 .52 3.868v7.243c0 1.02.378 1.448 1.253 1.448.12 0 .241-.008.36-.026v3.06a4.032 4.032 0 0 1-2.007.434 2.753 2.753 0 0 1-2.935-2.544l-.065-.69-.33.607c-.762 1.414-2.748 2.831-5.461 2.831zm.308-8.787c-1.388.117-2.879 1.032-2.879 2.766 0 1.513 1.231 2.653 2.857 2.653 3.065 0 4.963-1.79 4.963-4.678V17.82l-4.941.39zM9.584 33.699a14.032 14.032 0 0 0 6.746 2.419v9.97C4.3 41.155 0 32.273 0 24.743V6.323c2.774-1.82 8.986-3.12 16.33-3.25v4.924a14.102 14.102 0 0 0-8.44 24.336l1.643-1.638A11.791 11.791 0 0 1 16.32 10.32v9.927a2.19 2.19 0 0 0 0 3.616v9.897a11.665 11.665 0 0 1-5.063-1.734l-1.673 1.673zm3.932-16.295a6.138 6.138 0 0 0 0 9.294l1.643-1.643a3.828 3.828 0 0 1 0-6.004l-1.643-1.647zM7.417 22.05a10.1 10.1 0 0 0 3.3 7.46l1.638-1.634a7.803 7.803 0 0 1 0-11.64L10.716 14.6a10.105 10.105 0 0 0-3.299 7.452zM18.81 3.072c7.335.135 13.552 1.43 16.326 3.252v18.419c0 7.53-4.309 16.412-16.313 21.34v-9.97a14.106 14.106 0 0 0 8.44-24.327l-1.638 1.643a11.795 11.795 0 0 1-6.81 20.344V23.84a2.167 2.167 0 0 0 0-3.607v-9.91c1.806.188 3.544.794 5.076 1.77l1.673-1.674a14.02 14.02 0 0 0-6.754-2.427v-4.92zm2.8 23.63h-.003a6.143 6.143 0 0 0 0-9.298l-1.643 1.647a3.836 3.836 0 0 1 0 6.008l1.647 1.643zm6.104-4.651a10.122 10.122 0 0 0-3.29-7.452l-1.643 1.634a7.803 7.803 0 0 1 0 11.64l1.643 1.638a10.11 10.11 0 0 0 3.29-7.46z" fill="#5E5E5E" fill-rule="nonzero"/></svg>