<svg xmlns="http://www.w3.org/2000/svg" width="56" height="56" viewBox="0 0 56 56">
    <g fill="none" fill-rule="evenodd">
        <path fill="#181818" d="M28.025 29.465a2.665 2.665 0 1 0 0-5.331 2.665 2.665 0 0 0 0 5.33zm6.624-3.171c.207 0 .377.17.377.377v.66c0 .207-.17.377-.377.377h-1.82a4.823 4.823 0 0 1-.981 2.113l1.363 1.363a.377.377 0 0 1 0 .533l-.468.468a.377.377 0 0 1-.533 0l-1.382-1.382a4.842 4.842 0 0 1-2.096.82v2.002c0 .207-.17.377-.375.377h-.662a.38.38 0 0 1-.377-.377v-2.002a4.844 4.844 0 0 1-2.094-.82l-1.382 1.382a.377.377 0 0 1-.533 0l-.466-.468a.377.377 0 0 1 0-.533l1.36-1.361a4.847 4.847 0 0 1-.981-2.115H21.4a.377.377 0 0 1-.375-.377v-.66c0-.207.169-.377.375-.377h1.78a4.872 4.872 0 0 1 .842-2.298l-1.18-1.178a.38.38 0 0 1 0-.535l.466-.465a.375.375 0 0 1 .533 0l1.16 1.16a4.845 4.845 0 0 1 2.316-1.002v-1.597a.38.38 0 0 1 .377-.38h.662c.205 0 .375.17.375.38v1.597c.87.128 1.659.48 2.316 1.003l1.162-1.161a.375.375 0 0 1 .533 0l.468.467a.377.377 0 0 1 0 .533l-1.18 1.18c.464.662.75 1.448.839 2.296h1.779z"/>
        <path stroke="#181818" d="M33.975 44.5H22.037h11.938zm-1.45-36v1.131c0 .415-.694.869-1 .869h-6.931c-.305 0-1.068-.454-1.068-.869V8.5h9zm-12.958 0h17.02c1.695 0 2.939 1.346 2.939 3.039v32.642c0 1.695-.983 3.319-2.675 3.319H19.6c-1.693 0-3.101-1.624-3.101-3.319V11.539c0-1.693 1.374-3.039 3.067-3.039z"/>
    </g>
</svg>
