<svg xmlns="http://www.w3.org/2000/svg" width="56" height="56" viewBox="0 0 56 56">
    <g fill="none" fill-rule="evenodd">
        <path stroke="#FFF" d="M20.127 42.5h-4.09m10.489-36v1.131c0 .415-.695.869-1 .869h-6.932c-.305 0-1.068-.454-1.068-.869V6.5h9zm-4.963 39H13.6c-1.693 0-3.101-1.624-3.101-3.319V9.539c0-1.693 1.374-3.039 3.067-3.039h17.02c1.695 0 2.939 1.346 2.939 3.039V23.52"/>
        <path stroke="#FFF" d="M43.898 34.502v1.276-1.276zm-5.352-2.629v-.046 3.951-3.905zm-4.805-4.299a2.673 2.673 0 0 1 2.13-1.054 2.674 2.674 0 0 1 2.675 2.676v2.63a2.676 2.676 0 0 1 5.352.047v2.63a2.675 2.675 0 0 1 2.677-2.63c1.479 0 2.925 1.197 2.925 2.675v6.517m-5.602-5.287v-1.276 1.276zM28.5 41.256V21.17c0-1.478 1.022-2.814 2.5-2.814 1.48 0 2.5 1.212 2.5 2.925v14.73m-3.16 17.313c-4.643-2.208-7.85-6.94-7.85-12.422v-.964a2.676 2.676 0 1 1 5.353 0"/>
        <path fill="#FFF" fill-rule="nonzero" d="M19.013 22.973h6a1 1 0 0 1 1 1v5a1 1 0 0 1-1 1h-6a1 1 0 0 1-1-1v-5a1 1 0 0 1 1-1"/>
        <path stroke="#FFF" d="M19.513 21.973v-.703c0-1.079.465-1.797 1.825-1.797h1.329c1.363 0 1.846.718 1.846 1.797v.703"/>
    </g>
</svg>
