<svg xmlns="http://www.w3.org/2000/svg" width="56" height="56" viewBox="0 0 56 56">
    <g fill="none" fill-rule="evenodd">
        <path stroke="#FFF" d="M27.5 30c1.93 0 3.63.995 4.61 2.5H49.5v7H31.274A5.481 5.481 0 0 1 27.5 41c-1.461 0-2.79-.57-3.774-1.5H6.5v-7h16.39A5.495 5.495 0 0 1 27.5 30zm7-17.5a3 3 0 0 1 3 3v7a3 3 0 0 1-3 3h-14a3 3 0 0 1-3-3v-7a3 3 0 0 1 3-3h14zm-6 13.5v3m-2 0v-3M18 21.5h-5m5-5h-5"/>
        <path fill="#FFF" fill-rule="nonzero" d="M27.5 32.5a3 3 0 1 1 0 6 3 3 0 0 1 0-6z"/>
    </g>
</svg>
