<svg xmlns="http://www.w3.org/2000/svg" width="56" height="56" viewBox="0 0 56 56">
    <g fill="none" fill-rule="evenodd">
        <path stroke="#FFF" d="M30.516 6.532c1.264.026 2.527.065 3.79.118 1.017.043 2.034.11 3.05.175 1.356.088 2.709.208 4.044.476 1.162.233 2.283.58 3.323 1.164A7.16 7.16 0 0 1 47.367 11c.698 1.136 1.085 2.386 1.338 3.685.201 1.031.312 2.074.396 3.12.1 1.23.173 2.462.229 3.694a147.498 147.498 0 0 1 .143 7.976c-.01.924-.025 1.849-.057 2.773-.04 1.148-.091 2.296-.151 3.444-.046.883-.1 1.765-.175 2.646-.122 1.465-.295 2.924-.716 4.34-.443 1.486-1.139 2.824-2.305 3.882-.747.676-1.606 1.168-2.543 1.526-1.113.425-2.27.665-3.446.82-1.14.152-2.285.232-3.432.302-.962.058-1.925.107-2.887.15-.939.041-1.878.063-2.816.089-1.84.05-3.679.034-5.517.012a116.328 116.328 0 0 1-3.595-.117 134.925 134.925 0 0 1-3.141-.175c-1.505-.1-3.008-.227-4.484-.562-1.028-.233-2.021-.565-2.942-1.087a7.253 7.253 0 0 1-2.946-3.09c-.605-1.19-.93-2.465-1.14-3.773-.17-1.067-.26-2.141-.333-3.218a128.16 128.16 0 0 1-.182-3.232c-.036-.854-.062-1.708-.09-2.562-.059-1.764-.06-3.529-.046-5.294.008-.94.031-1.879.062-2.818.029-.909.065-1.818.118-2.725.065-1.132.125-2.265.226-3.395.114-1.275.272-2.543.605-3.783.324-1.208.807-2.343 1.587-3.334.924-1.173 2.128-1.949 3.519-2.455 1.195-.436 2.436-.662 3.694-.81a54.935 54.935 0 0 1 3.404-.272c1.052-.059 2.105-.11 3.158-.151 1.653-.065 3.306-.1 4.96-.077.885 0 1.77-.015 2.654.003z"/>
        <path fill="#FFF" fill-rule="nonzero" d="M33 27v2H23v-2h10zm-.139-11.635c1.62.06 3.402-.038 5.051 1.121 1.64 1.213 2.047 3.263 2.015 4.849a23.622 23.622 0 0 1-.35 4.886c-.37-1.598-.56-3.212-.853-4.75-.253-1.554-.682-2.982-1.744-3.709-1.017-.824-2.666-.878-4.191-1.19-1.583-.225-3.181-.43-4.789-.746 1.614-.335 3.231-.436 4.861-.461z"/>
    </g>
</svg>
