<svg xmlns="http://www.w3.org/2000/svg" width="56" height="56" viewBox="0 0 56 56">
    <g fill="none" fill-rule="evenodd">
        <path stroke="#FFF" d="M28.5 8.5h-.765l-10.204 10H10.5a3 3 0 0 0-3 3v12a3 3 0 0 0 3 3h7.031l10.204 10h.765a2 2 0 0 0 2-2v-34a2 2 0 0 0-2-2zm13.325 30.929c3.997-2.45 6.783-6.905 6.783-11.997 0-5.091-2.785-9.546-6.783-11.996M26.5 10v35.5m-9-25v14m20.407.018c2.362-1.446 4.008-4.078 4.008-7.086 0-3.007-1.646-5.639-4.008-7.086"/>
        <path fill="#FFF" fill-rule="nonzero" d="M30.928 32.495h-.136V22.402h.136a3.06 3.06 0 0 1 3.052 3.051v3.991a3.06 3.06 0 0 1-3.052 3.051z"/>
    </g>
</svg>
