<svg xmlns="http://www.w3.org/2000/svg" width="56" height="56" viewBox="0 0 56 56">
    <g fill="none" fill-rule="evenodd">
        <path stroke="#FFF" d="M28.167.429c6.057 0 10.345 2.955 10.345 4.994v42.382c0 6.138-5.24 7.87-10.345 7.86-4.823-.01-10.64-1.437-10.64-7.86V5.423c0-2.04 4.583-4.994 10.64-4.994zm5.951 34.082h-12.24c-.764 0-1.378.625-1.378 1.397v8.204c0 .77.614 1.397 1.378 1.397h12.24a1.39 1.39 0 0 0 1.382-1.397v-8.204c0-.772-.618-1.397-1.382-1.397zm0-20h-12.24c-.764 0-1.378.625-1.378 1.397v8.204c0 .77.614 1.397 1.378 1.397h12.24a1.39 1.39 0 0 0 1.382-1.397v-8.204c0-.772-.618-1.397-1.382-1.397zM34.5 11.5H21.469m13.031 20H21.469"/>
        <path fill="#FFF" fill-rule="nonzero" d="M23.506 5.02h9.4l.135.304-4.846 1.619-4.847-1.58z"/>
    </g>
</svg>
