<svg xmlns="http://www.w3.org/2000/svg" width="56" height="56" viewBox="0 0 56 56">
    <g fill="none" fill-rule="evenodd">
        <path stroke="#FFF" d="M36.097 33.022a7.261 7.261 0 0 1-13.191 6.074m3.407-25.697c1-1.981 3.132-3.349 5.597-3.349 3.427 0 6.206 2.642 6.206 5.901 0 .529-.073 1.04-.21 1.528M14.378 28.414a6.807 6.807 0 0 1 2.548-3.614m21.093-9.513h2.157a5.066 5.066 0 0 1 2.593 9.416 5.044 5.044 0 0 1-2.593.713m6.162-1.899a4.946 4.946 0 0 1 4.947 4.946c0 2.637-2.345 5.001-4.947 5.149-.178 5-2.396 6.781-5.746 6.969-1.747.097-3.432-.688-4.432-1.5m-9.502-3.913c-2.151 1.916-4.801 1.916-5.763 1.916a6.784 6.784 0 0 1-6.781-6.784 6.839 6.839 0 0 1 .264-1.886l-.164.233h-2.207a7.506 7.506 0 0 1-.117-15.008c1.687-3.542 5.29-5.997 9.474-5.997 2.328 0 4.479.758 6.218 2.041M16.926 24.8a6.746 6.746 0 0 1 3.969-1.283"/>
        <path fill="#FFF" fill-rule="nonzero" d="M22.916 48.018h10.006a1 1 0 0 1 1 1v.023a1 1 0 0 1-1 1H22.916a1 1 0 0 1-1-1v-.023a1 1 0 0 1 1-1"/>
    </g>
</svg>
