<svg xmlns="http://www.w3.org/2000/svg" width="56" height="56" viewBox="0 0 56 56">
    <g fill="none" fill-rule="evenodd">
        <path stroke="#FFF" d="M46.5 15.512l.026 16h-24v9.976h-12V15.512H46.5zm-2 16.254v7.787H22.553"/>
        <path fill="#FFF" fill-rule="nonzero" d="M26.575 33.884a1.652 1.652 0 1 1 0 3.305 1.652 1.652 0 0 1 0-3.305zm4.939 0a1.652 1.652 0 1 1 0 3.305 1.652 1.652 0 0 1 0-3.305zm4.938 0a1.652 1.652 0 1 1 0 3.305 1.652 1.652 0 0 1 0-3.305zm4.94 0a1.652 1.652 0 1 1 0 3.305 1.652 1.652 0 0 1 0-3.305z"/>
    </g>
</svg>
