<svg xmlns="http://www.w3.org/2000/svg" width="56" height="56" viewBox="0 0 56 56">
    <g fill="none" fill-rule="evenodd">
        <path fill="#FFF" fill-rule="nonzero" d="M24.352 28.783a3.32 3.32 0 1 1 6.64.002 3.32 3.32 0 0 1-6.64-.002"/>
        <path stroke="#FFF" d="M42.305 42.304l-1.284-1.283 1.284 1.283zm-27.963-1.283l-1.284 1.283 1.284-1.283zM9.949 27.978H7.002h2.947zm17.702 1.124L39 17.5 27.651 29.102zm0 0l-7.463-7.29 7.463 7.29zM13.08 13.08l1.262 1.262-1.262-1.262zm29.202.002l-1.261 1.26 1.261-1.26zm6.077 14.897h-2.41 2.41zm-20.91 20.427v-2.931 2.931zm0-41.358v2.431-2.431zm0 0l.231-.002a20.612 20.612 0 0 1 14.602 6.036l.023-.024-.023.024a20.615 20.615 0 0 1 6.078 14.644l-.001.253c-.136 11.306-9.342 20.428-20.679 20.428l-.231-.001v.073-.073C16.134 48.281 7 39.071 7 27.725a20.615 20.615 0 0 1 6.08-14.646l-.022-.022.022.022a20.614 20.614 0 0 1 14.369-6.032V7v.047z"/>
    </g>
</svg>
