<svg xmlns="http://www.w3.org/2000/svg" width="56" height="56" viewBox="0 0 56 56">
    <g fill="none" fill-rule="evenodd">
        <path stroke="#FFF" d="M36 12.5H19.172c-1.643 0-3.07-.678-3.672-2m25.455 35.167c-.555-1.432-2.032-2.167-3.742-2.167H19.172c-1.643 0-3.07.678-3.672 2m-5.167-4.731c1.432-.555 2.167-2.033 2.167-3.743V18.985c0-1.642-.678-3.07-2-3.672m35.167 25.456c-1.432-.555-2.167-2.033-2.167-3.743V24.133m4.405-1.07a136.184 136.184 0 0 1 .088 6.309c-.009.861-.023 1.722-.053 2.582a190.546 190.546 0 0 1-.14 3.207 77.76 77.76 0 0 1-.163 2.464c-.115 1.364-.275 2.723-.667 4.04-.413 1.385-1.06 2.631-2.147 3.615-.695.631-1.495 1.088-2.368 1.422-1.035.396-2.112.618-3.208.764-1.061.14-2.128.216-3.195.28-.897.055-1.792.101-2.689.14-.874.039-1.748.058-2.622.083-1.713.047-3.425.032-5.137.011a106.767 106.767 0 0 1-3.347-.109 129.58 129.58 0 0 1-2.925-.162c-1.402-.094-2.801-.212-4.175-.524-.957-.217-1.882-.526-2.74-1.012a6.763 6.763 0 0 1-2.742-2.878c-.564-1.108-.866-2.294-1.061-3.513-.159-.993-.243-1.994-.311-2.996a116.463 116.463 0 0 1-.17-3.01c-.033-.795-.058-1.589-.084-2.385a120.897 120.897 0 0 1-.042-4.929c.007-.875.029-1.75.057-2.624.027-.846.061-1.692.11-2.538.061-1.054.117-2.108.211-3.16.106-1.188.253-2.369.563-3.523.302-1.125.751-2.182 1.478-3.104.86-1.093 1.981-1.815 3.276-2.287 1.113-.405 2.269-.616 3.44-.754a50.881 50.881 0 0 1 3.17-.253c.98-.054 1.959-.102 2.94-.141a87.83 87.83 0 0 1 4.619-.072c.823 0 1.648-.013 2.471.004 1.177.024 2.352.06 3.528.11.948.04 1.895.101 2.841.162.591.039 1.182.083 1.769.146"/>
        <path fill="#FFF" fill-rule="nonzero" d="M40 15.787C40 12.489 44.416 8 44.416 8s4.415 4.535 4.415 7.787c0 2.327-1.977 4.213-4.415 4.213C41.977 20 40 18.114 40 15.787M44 31a1 1 0 1 1 0 1.999 1 1 0 0 1 0-2m0-8a1 1 0 1 1 0 2 1 1 0 0 1 0-2"/>
    </g>
</svg>
